/* XPM */
static char *e78b4ee396fc4bc8f1cabe166968076eM6eLUPEeZ7hdu99e[] = {
/* columns rows colors chars-per-pixel */
"50 50 253 2 ",
"   c #241D05",
".  c #3A041C",
"X  c #350418",
"o  c #1F2000",
"O  c #242202",
"+  c #292B03",
"@  c #282905",
"#  c #2D330C",
"$  c #333D08",
"%  c #2E2F1A",
"&  c #1C182E",
"*  c #1C1836",
"=  c #140A3F",
"-  c #3B0A25",
";  c #3E0C29",
":  c #370923",
">  c #291729",
",  c #37152B",
"<  c #221C35",
"1  c #231E39",
"2  c #2B1E39",
"3  c #2B1B35",
"4  c #3C1D36",
"5  c #391A36",
"6  c #1E243D",
"7  c #2D2B25",
"8  c #343926",
"9  c #242135",
"0  c #25233B",
"q  c #2A253E",
"w  c #252A3C",
"e  c #2B2B3D",
"r  c #2B2635",
"t  c #35233C",
"y  c #3B223A",
"u  c #382539",
"i  c #383839",
"p  c #2C3728",
"a  c #42061F",
"s  c #420E29",
"d  c #490C29",
"f  c #450924",
"g  c #43112D",
"h  c #4B132D",
"j  c #441532",
"k  c #4A1632",
"l  c #4B1A35",
"z  c #4C1B3C",
"x  c #431D39",
"c  c #521C38",
"v  c #4A0D31",
"b  c #44223C",
"n  c #4C2337",
"m  c #59253C",
"M  c #503238",
"N  c #642B3C",
"B  c #3A470B",
"V  c #3B4A12",
"C  c #3C4C1C",
"Z  c #374517",
"A  c #3E5415",
"S  c #3D530C",
"D  c #3B4726",
"F  c #324233",
"G  c #304F35",
"H  c #45580D",
"J  c #425513",
"K  c #455A14",
"L  c #41531B",
"P  c #475C18",
"I  c #4A6315",
"U  c #4D6A18",
"Y  c #517619",
"T  c #4F690E",
"R  c #455430",
"E  c #48732E",
"W  c #1D2444",
"Q  c #1B2849",
"!  c #183848",
"~  c #1A2753",
"^  c #193A55",
"/  c #0E3153",
"(  c #2B2641",
")  c #262B44",
"_  c #2D2B43",
"`  c #272B46",
"'  c #322D45",
"]  c #342E49",
"[  c #3A2E4A",
"{  c #392743",
"}  c #2B334B",
"|  c #2D3C4E",
" . c #273546",
".. c #333146",
"X. c #34324A",
"o. c #3A354D",
"O. c #3B394E",
"+. c #353949",
"@. c #3B2E56",
"#. c #2D3B52",
"$. c #263957",
"%. c #353453",
"&. c #3B3551",
"*. c #323B53",
"=. c #3C3B53",
"-. c #3B395B",
";. c #2E2F50",
":. c #323B6B",
">. c #391E47",
",. c #4A1D47",
"<. c #531A47",
"1. c #501453",
"2. c #691054",
"3. c #4C2442",
"4. c #462B44",
"5. c #4B2C43",
"6. c #462749",
"7. c #532545",
"8. c #562848",
"9. c #44354B",
"0. c #513749",
"q. c #472C53",
"w. c #592857",
"e. c #413E56",
"r. c #423E59",
"t. c #4A3755",
"y. c #543455",
"u. c #66294B",
"i. c #653444",
"p. c #672D57",
"a. c #531366",
"s. c #770A75",
"d. c #6F0B69",
"f. c #483B68",
"g. c #52336C",
"h. c #6D2E6D",
"j. c #1A475A",
"k. c #164253",
"l. c #28464B",
"z. c #2C4255",
"x. c #2A425C",
"c. c #2D495B",
"v. c #23465A",
"b. c #33435B",
"n. c #354C5B",
"m. c #3A4558",
"M. c #3A535C",
"N. c #37565E",
"B. c #2E484E",
"V. c #184C64",
"C. c #195566",
"Z. c #0C5775",
"A. c #10576C",
"S. c #294A65",
"D. c #3A4B64",
"F. c #374964",
"G. c #275666",
"H. c #3A5265",
"J. c #3A5A63",
"K. c #3D5B6C",
"L. c #365768",
"P. c #395C71",
"I. c #2E5577",
"U. c #18656B",
"Y. c #0B6B78",
"T. c #157076",
"R. c #38626B",
"E. c #256774",
"W. c #396475",
"Q. c #3B6C7B",
"!. c #396474",
"~. c #26777A",
"^. c #356972",
"/. c #386B57",
"(. c #465E4D",
"). c #424356",
"_. c #44435A",
"`. c #49465D",
"'. c #454A5D",
"]. c #4A495E",
"[. c #4B4451",
"{. c #5A455B",
"}. c #41414A",
"|. c #714554",
" X c #4A7647",
".X c #4D4C62",
"XX c #484865",
"oX c #514E65",
"OX c #584966",
"+X c #49526A",
"@X c #525166",
"#X c #55546A",
"$X c #5A556C",
"%X c #59596E",
"&X c #55596E",
"*X c #444577",
"=X c #5C5C72",
"-X c #5F5571",
";X c #655B76",
":X c #664575",
">X c #506879",
",X c #66647B",
"<X c #8D0370",
"1X c #4B8537",
"2X c #508F38",
"3X c #23847E",
"4X c #4C8543",
"5X c #7A2E8B",
"6X c #5F2EA2",
"7X c #345190",
"8X c #197789",
"9X c #2F7D86",
"0X c #2A6CAC",
"qX c #284D95",
"wX c #535196",
"eX c #644A92",
"rX c #466C8E",
"tX c #686782",
"yX c #6948B8",
"uX c #7276AF",
"iX c #3371C3",
"pX c #7749C3",
"aX c #5377C1",
"sX c #A1049A",
"dX c #A1008B",
"fX c #AB07B1",
"gX c #931495",
"hX c #AE1ACD",
"jX c #CC18D4",
"kX c #138E90",
"lX c #2B8D92",
"zX c #0088A2",
"xX c #0296A8",
"cX c #1893B4",
"vX c #00A7B5",
"bX c #03B6BB",
"nX c #2FA4AD",
"mX c #428A97",
"MX c #468FB5",
"NX c #0ABDC1",
"BX c #1FBAE2",
"VX c #3681D7",
"CX c #4D98E9",
"ZX c #5592E8",
"AX c #01CCC9",
"SX c #00D2CE",
"DX c #1DC0DD",
"FX c #02ECDB",
"GX c #27C6EC",
"HX c #00FFF7",
"JX c #05EDE9",
"KX c #1AC9F6",
"LX c #48C2F0",
/* pixels */
"=X,X=X,X=X=X=X%X=X#XO.@X&X@X=.].#X@X@XoXoX.X.X.X].].`._.] X.e._.e.m.e.=.=.&.=.O._ X.&.+..._ ' X.....",
"=X=X=X=X=X=X=X=X%X#X&.@X@X'.=.'.#X@XoXoXoX].]..X].`.`.`.;.X._._._.r.e.e.=.=.&.o._ o.&.o.' ( _ ..X._ ",
"=X=X=X=X=X=X%X=X#X.X&.@X#XoX=.`.oX@X@X.X.XoX.X].].`.`._.X.( ..`._.=.e.e.e.=.=.o.` X.o.X.} ' ] X.' ] ",
"=X=X=X%X%X=X%X&XoX.Xo.oX#X#X=._.]..X@XoX.X.X.X.X.X`.`.`.' X.e.r.r.).e.m.=.=.=.o.] o.+.X.o.X.X.X.X._ ",
"=X=X=X=X@X;XtX&X%XoXX.@X#X#X&._.].@X.X@X].].]._.&.].`._._ ] XX=.o.O.e.=.=.=.=.[ ;.o.+.o.X.X.X.] .._ ",
"%X#X@X%X.X_.=X&X@X.X] XX@X.XX.`.#X@X#X]._.oX].t.t.r..X_._ _ =._.m.XX_.=.&.&.=.[ 2.[ X.o.X.X....._ _ ",
"..o...X._ *X*X_ _ _ _ _ ' _ _ ] X.O.=.o.] O.< .X$X< ..&._ _ _ ] X.o._ q w w >.2.<X>.w _ _ _ _ e 0 0 ",
"`._ r.XXw.sXeX%X,X,X,X,X,X,X=X%X@X.X.X' ] [ r.;X`.4.[ r.=.]._.`..XoX.XXX`.o.a.dX<Xx @.f._.=.=.-.&._ ",
".X&.=X=Xh.d.OX=X=X&X=X=X=X$X#X@X@X@X&X%.X.oX#X.._ o.t...`._.-._._.'.@XoX.X&.[ a.w.[ ,...X.X.X.X.X.( ",
"`.o.&X&X@X[ XX&X@X&X@XoX@X@X.X@XoX.X.XX.3 {._ v.C.` [ t o.`.).e.e.=.=.O.O.[ ] O.X.' 5 ] X.X.X.' _ ( ",
"m.o.$X&X@X{ .X$X#X#X#X@XoX@X>XoXoX.X`.> [ t.v.C.G.V.} 9.3 e._.e.e.O.O.O.=.X.[ o.%.;.5 [ X.X.] .._ ( ",
"e.o.$X#X@X{ .X#X@X#X.X@X@XoXoXoX.X].{ [ ;Xm.V.v.C.j.^ {.OX' =._.=.o.X.X.=...] O.wXpX<X{ } X...X._ ( ",
"O...&X#X@Xy ].#X@X@X_.].oXoXoX.X@Xe.2 J.J.X.^ j.V.k.Q =.J.( [ e.=.&.O.O.=.' ] &.:.hXsX[ } ..X.X.' e ",
"e.] $X@XoX4 '.%X#X@XoXoX@XoX@XoX].{ ).W.R.X.W ^ ^ Q 0 +.J.B.q X.).=.=.=.=.] { =.o.s.a.%.X.X.' ( q q ",
"=.( `._.e.u w.h.+X.X@X.X'._._.`.o.[ J.J.b.| _ W W ( q | J.N. .t =.&.&.o.=.t _ ..] t 3 ) ( .._ q 0 q ",
"' ' X.O.[ 7.hXs.y b 3.q.+.O.=.O.3 n.R.n.j.A.x.X._ q l.kXR.M.N.w < e q 0 [ b s j 5 j t ( q q w 9 w q ",
".X%X%X%X%X$XyXeX@X$XXXrX;X,X,XOXr.R.J.v.Y.k.> oXoX> e lX~.N.J.N.< ' _.e.rX6.u [ 9.O.&.O.=.XX.XXX].r.",
"].oX@X.X].{.OXoXoXoXwXMX{.oX.X{ m.J.n.Y.C.. . b ].h X r 3XU.N.J. .( _.O.rX@.X.%.X.X...X.' ..X.o.X...",
"].@X.X`.`._.oXoXoX].*XrXoX.Xe.m.N.M.T.Y.: s c 7.8.8.l X  .~.J.N. .0 &.%.q.,.X.o.X.X.X.X.X.' _ _ _ ( ",
"].@X@X]._.]..XoXoX.X6.8..X.X9.R.N.U.kXw f m 8.u.u.8.7.g X C.E. .` q X.=.4.4 *.o.o.X.X.X.X.( e ( _ _ ",
"]..X.X.X].oX.X.X.X].4.9.XX_.m.J.M.3XU.X c u.p.t.G.8.8.z ; > C.^ } Q ( *.4.x %.] ..X.X...X._ e ( _ _ ",
"]..XoX.X.X.X.X.X].+Xy 0..XO.n.N.N.lXr f m u.@XJXHXkX8.7.n . Q A.} ) 2 o.4.b +.X.X.X.X...] _ _ _ ' ( ",
"_.oX.X.XoXoXoX].].@X6.y..XO.N.M.~.T.X l 8.u.bXHXFXSXG.<.7.h > Z.^ ) 0 ..5.b  .r.%.X.X...X.X.X._ ' _ ",
"' O._.]._._.r.e.e.s.jXh.e m.J.n.~.G a n 7.].FXFXSXbXkX3.7.z X ^ V.` 0 * y c <.t  .' ( ( q 0 0 0 0 w ",
"m N N N i.N N N u.s.fXh.[ F.(.L.~., h z <.P.AXbXvXvXxX5.8.c d 6 Z.` Q 2 X.a.dXd.5X:.e _ _ X.' ] ] ] ",
"|.|.|.|.i.{.{.{.].@Xg.XX].+XM.R.U.a c l z E.vXxXzXxXxXq.7.l h > Z.^ ) 2 =.q.a.s.fXeX+.&.&.=.r.`._.e.",
"{.)._.).{ _.+X'.`.p.XXXX&.N.n.~.l.- l l z I.vXzXzXxXxXq.y.l k a j./ 6 * ] X. .t.wX' .._ _ _ e e ( 0 ",
"].].`.`.b [.].'.p.2.(.XXO.|  .U.p d l j <.F.vXvXxXvXxX3.3.l k f ! C.$.` X.o.' OXMX] _ X.' _ _ _ ( ( ",
"`.`.`._.3._.].[.R A E E M } #.U.3 h h h ,.@.bXAXSXSX8X,.3.k k d w E.x.x.X.o. .y.p.;.' ] _ _ _ _ _ ( ",
"`.`.@X_.7._.m.D C L K 1Xm.#.#.U.r d h h z <.lXHXHXFXXXz n k l h  .T.$.x.X...X.5.5._ ' _ ' _ _ _ ( ( ",
"`._.>Xm.:XwXi # $ C H 1X(.#.| C.r d k g j 3.y.nXJX>X7.,.3.b g g  .9Xx.$...X.X.5.n ` ' _ _ _ ( _ ( e ",
"XX_.p.h.gXwX9.# V H H S R *.} C.e d g g g ,.8.u.h.p.6.y b b 5.5.L.9XS.x.&.*. .5.n ` X.' ' _ ( ' ( ) ",
"[ ,.<XsXs.9 ] R L K U 1Xi ( z.C.w d n k ; l z 7.u.t.6.y b x e.9.G.E.x.#.9 ] a.n n 9 1 9 9 9 & 9 0 < ",
"uXOXg.a.f.`.F Z Z B B S R z.S.G.w l OXb - k j l z ,.b 4 x b 4 , G.G.c.$.F E M [ 0.4.{ 3 * 1 < * ( _ ",
"uX`.`.m.).y.m @ + + + # (.(.$.G. .; O.3 - g ; , j g 4 4 b 4 y 4 V.S.S.c.E I A D } +.o.M [ o.' 9 =.&.",
"y.e._._.m.a.<X% L J I Y 2X/.$.E. .; 5 , - s s ; g 4 4 5 i u y , S.G.S./.1XK C Z 8 _ q '.z.q q w _ _ ",
"_._.).r.&.u , $ B B B I 2X4X^ C. .. b , : g ; - ; y 4 5 y y ; : / Q  .G B + @ + c d.e 5.e ( 0 w ' ..",
"O.).e.e.).+.B J J H H S E E _ j.k.. ; ; - ; ; - ; y u *X[ u y t A.* r G V H C B n 1.e M t ) q 9 ( _ ",
"O.e.=.r.m.L L L K I U T K <X,.^ k.. ; ; : ; - - - ; y X.....y #.Y.Q l.2XY H B V H Z 8 N q ( 0 0 _ ..",
"O.e.=.).L 8 D L K P I T Y a.1.! ! : ; - : 5 t 5 t t ] | z.| t w A.~ }.2XA B A K L Z C M ( q 0 1 ' _ ",
"o.O.o.+.D Z L L P I I T Y 1Xw Q ! X ; - , ' e e e ' [ ( | c.n.G.A.~ {.1XB I I L L D D 7 ( 0 0 1 _ ' ",
"q ' ..i 8 D Z Z Z V S H I Y F Q ! : ; ; : { { ( ' { %.%.b.G.!.9XY./ G S T U P P D $ @ % 1 & & & & 1 ",
"_.`.`.m.@ @ O O O       O B p Q ! - s s ; [ [ ] [ o.[ %.7Xb.c.U.Y./ ! U Y T P $ +   @ t.1 1 0 9 0 0 ",
"o.O.=.O.7 O O O     O O O + r W ! - d h d 6.-.@.@.r.-.%.[ L.S.T.8X^ &.1XT H @   O @ 5.g._ ] ] %.%.=.",
"o.&.O.&.=...7 r 7 7 7 7 O i ( ) k.j 1.1.1.w.XXXX*XwXf.:.7X!.I.kXZ.= 6 E B o   O   N q ) 0 0 0 0 0 0 ",
"+.=.=.m.=.o.0 [ , y [ i +.e.( ~ T.1.6X6X6XpXyXeXwXaXwX7XVXiXqXcXqX= 0 # O O   > 5 N 3 1 1 1 1 < * 1 ",
"z.c.L.L.R.!.R.rXK.n.K.H.m.e.:.I.8X0XiXLXCXZXZXCXGXGXGXKXGXGXBXDX0XV.x.B.% p *.} [ {.z.c.x.z.#.} ` ) ",
"* 0 6 0 ) } | S.!.W.Q.Q.b.0 L.F.F.L.L.P.W.9XmXmXmXmXlXcXlXQ.Q.rX9XrXmXL.#.W.L.L.P.P.!.Q.Q.!.P.L.n.#.",
") 0 0 ` ` ` ) ` ` ' } #.} 6 *.#.b.-.n.F.F.D.+XD.+X+X*X9 F.+XD.D.XXF.F.}  .b.*.*.*.#.} ' } ` ` ` ` ` ",
"* ) ) ` ` `  .} #.*.*.b.z.w #.*.b.F.F.D.H.K.P.+XP.P.K.$.W.K.H.H.F.F.H.*.} F.b.b.b.b.*.*.#.;.;.} `  ."
};
