/* XPM */
static char *result[] = {
/* columns rows colors chars-per-pixel */
"50 50 214 2 ",
"   c #561D02",
".  c #671700",
"X  c #6A2601",
"o  c #742100",
"O  c #7A2A01",
"+  c #2D5400",
"@  c #2C5C00",
"#  c #325B00",
"$  c #355B03",
"%  c #356301",
"&  c #3B6503",
"*  c #3D6A02",
"=  c #3F640F",
"-  c #406E02",
";  c #40640D",
":  c #42690C",
">  c #437301",
",  c #467901",
"<  c #497C02",
"1  c #4B780C",
"2  c #43700C",
"3  c #4E6F1F",
"4  c #476C16",
"5  c #517A18",
"6  c #4D7812",
"7  c #6C6E05",
"8  c #557A29",
"9  c #5E7C34",
"0  c #832C00",
"q  c #8B2D00",
"w  c #902F00",
"e  c #863103",
"r  c #893100",
"t  c #863C08",
"y  c #9C3900",
"u  c #973300",
"i  c #A23C00",
"p  c #A53600",
"a  c #924107",
"s  c #A84106",
"d  c #B34500",
"f  c #B94300",
"g  c #BE4900",
"h  c #AF5B13",
"j  c #B85314",
"k  c #AE6008",
"l  c #B9720F",
"z  c #AF741D",
"x  c #A46016",
"c  c #C54C01",
"v  c #C95E0C",
"b  c #CE5100",
"n  c #C9680C",
"m  c #FE750C",
"M  c #FD760B",
"N  c #FD7416",
"B  c #FD7B15",
"V  c #FE7B1B",
"C  c #FD6A05",
"Z  c #FE7C21",
"A  c #FE7F2A",
"S  c #4D8202",
"D  c #54870C",
"F  c #599405",
"G  c #4D8316",
"H  c #588518",
"J  c #639817",
"K  c #69A711",
"L  c #598324",
"P  c #608629",
"I  c #699B24",
"U  c #648538",
"Y  c #6E9438",
"T  c #75AA31",
"R  c #77AD31",
"E  c #738D4F",
"W  c #758E51",
"Q  c #799155",
"!  c #82B939",
"~  c #D98F0E",
"^  c #FD8C0B",
"/  c #FD8605",
"(  c #FD9C00",
")  c #FE960B",
"_  c #EC811E",
"`  c #FD841C",
"'  c #FE8917",
"]  c #FC9413",
"[  c #FD9812",
"{  c #EC9801",
"}  c #FDA402",
"|  c #FEAA02",
" . c #FEAB0C",
".. c #FEB00B",
"X. c #FEAB14",
"o. c #FEAD1D",
"O. c #FBA713",
"+. c #FEB21C",
"@. c #FFB416",
"#. c #E7A219",
"$. c #CA8922",
"%. c #D79023",
"&. c #FD8423",
"*. c #FD8C24",
"=. c #FE842C",
"-. c #FE8C2D",
";. c #FE9C26",
":. c #FE8A33",
">. c #FE8C3D",
",. c #FE8636",
"<. c #FC9E35",
"1. c #FDA324",
"2. c #FEAD23",
"3. c #FEA72C",
"4. c #FEAE2B",
"5. c #F3AF2A",
"6. c #FEB32C",
"7. c #FEB92D",
"8. c #FEBA24",
"9. c #FEA73A",
"0. c #FDA93A",
"q. c #FEB431",
"w. c #FEBB33",
"e. c #FEB63A",
"r. c #E3A522",
"t. c #FEC22B",
"y. c #FEC334",
"u. c #FEC33C",
"i. c #FFCD39",
"p. c #FFCA36",
"a. c #FFD038",
"s. c #88B842",
"d. c #859B66",
"f. c #90A86D",
"g. c #8FB062",
"h. c #8FA373",
"j. c #98AF74",
"k. c #FE8A41",
"l. c #FE9845",
"z. c #FE9B55",
"x. c #FEA946",
"c. c #FEBC43",
"v. c #FEB449",
"b. c #FEB75B",
"n. c #FEA563",
"m. c #FEAE7B",
"M. c #FEB27B",
"N. c #FEB276",
"B. c #98C758",
"V. c #8DC345",
"C. c #ACCF7A",
"Z. c #FEC442",
"A. c #FECB44",
"S. c #FECC4C",
"D. c #FEC64D",
"F. c #FED148",
"G. c #FECF52",
"H. c #FDC151",
"J. c #FFD654",
"K. c #EBD056",
"L. c #FED466",
"P. c #FED07E",
"I. c #FEC96E",
"U. c #9FB086",
"Y. c #98AD81",
"T. c #A3B38B",
"R. c #ABBB95",
"E. c #FEB685",
"W. c #FEBA91",
"Q. c #B3D583",
"!. c #BCD597",
"~. c #B6C99C",
"^. c #BDC9AB",
"/. c #BCCBA6",
"(. c #FEDB88",
"). c #FEC29A",
"_. c #FEC094",
"`. c #FEDB9A",
"'. c #FFE598",
"]. c #C7DDA8",
"[. c #C3CFB7",
"{. c #FACBAA",
"}. c #FEDBA6",
"|. c #FED2B4",
" X c #FED8BB",
".X c #CFE0AF",
"XX c #CEE2B2",
"oX c #D0E5B2",
"OX c #D4E9B8",
"+X c #FEE4AD",
"@X c #FEEAB7",
"#X c #FEDDC4",
"$X c #DEE5D5",
"%X c #DAE9C3",
"&X c #FEEDC4",
"*X c #E2F0CE",
"=X c #E3EADB",
"-X c #FEE7D6",
";X c #FEEEDF",
":X c #E8F2D8",
">X c #FFF5D8",
",X c #EAEEE5",
"<X c #EAECE9",
"1X c #EEF3E6",
"2X c #FEF4E6",
"3X c #F2F5ED",
"4X c #FEF9EE",
"5X c #FEF2EA",
"6X c #F5F5F4",
"7X c #F7F8F5",
"8X c #FEFBF4",
"9X c #FFFFFF",
"0X c #F9F5FD",
"qX c #FEECE9",
/* pixels */
"9X9X9X9X9X9X9X9X9X9X9X9X9X9X9X9X9X9X9X9X9X9X9X9X9X9X9X9X9X9X9X9X9X9X9X9X9X9X9X9X9X9X9X9X9X9X9X9X9X9X",
"9X9X9X9X9X9X9X9X9X9X9X9X9X9X9X9X9X9X9X9X9X9X9X9X9X9X9X9X9X9X9X9X9X9X9X9X9X9X9X9X9X9X9X9X9X9X9X9X9X9X",
"9X9X9X9X9X9X9X9X9X9X9X9X9X9X9X9X9X9X9X9X9X9X9X9X9X9X9X9X9X9X9X9X9X9X9X9X9X9X9X9X9X9X9X9X9X9X9X9X9X9X",
"9X9X9X9X9X9X9X9X9X9X9X9X9X9X9X9X9X9X9X9X9X9X9X9X9X9X9X9X9X9X9X9X9X9X9X9X9X9X9X9X9X9X9X9X9X9X9X9X9X9X",
"9X9X9X9X9X9X9X9X9X9X9X9X9X9X9X9X9X9X9X9X9X9X9X9X9X9X9X9X9X9X9X9X9X9X9X9X9X9X9X9X9X9X9X9X9X9X9X9X9X9X",
"9X9X9X9X9X9X9X9X9X9X9X9X9X9X9X9X9X9X9X9X8X9X9X8X9X9X9X9X9X9X9X9X9X9X9X9X9X9X9X9X9X9X9X9X9X9X9X9X9X9X",
"9X9X9X9X9X9X9X9X9X9X9X9X9X9X9X9X9X9X9X8X9X9X8X9X8X@X4X9X8X9X8X9X9X9X9X9X9X9X9X9X9X9X9X9X9X9X9X9X9X9X",
"9X9X9X9X9X9X9X9X9X9X9X9X9X9X9X9X9X9X Xn.).#X9X@Xe.+.(.9X9X9X9X9X9X9X9X9X9X9X9X9X9X9X9X9X9X9X9X9X9X9X",
"9X9X9X9X9X9X9X9X9X9X9X9X9X9X9X9X9X9Xz.B =.z.b.} } q.S.|.W.N.n.-X9X9X9X9X9X9X9X9X9X9X9X9X9X9X9X9X9X9X",
"9X9X9X9X9X9X9X9X9X9X9X9X9X9X9X9X9X9X=.N >.:.( } } 2.Z.e.:.>.B l.9X9X9X9X9X9X9X9X9X9X9X9X9X9X9X9X9X9X",
"9X9X9X9X9X9X9X9X9X9X9X9X9X9X9X2X(.'.x.V Z -.} } } o.6.J.x.>.V >.8X9X9X9X9X9X9X9X9X9X9X9X9X9X9X9X9X9X",
"9X9X9X9X9X9X9X9X9X9X9X9X9X9X9X}.O.y.S.G.0.B ( } } O.6.F.9.=.&.l.+X4X9X9X9X9X9X9X9X9X9X9X9X9X9X9X9X9X",
"9X9X9X9X9X9X9X9X9X9X9X9X9X8X9X2X6.2.+.7.p.1.^ | ..t.i.6.V ` c.G.A.A.&X9X9X9X9X9X9X9X9X9X9X9X9X9X9X9X",
"9X9X9X9X9X9X9X9X9X9X9X9X9X9X8X&XO.2.q.o.4.i.Z l $.$.%.` ;.t.u.7.w.7.y.&X9X9X9X9X9X9X9X9X9X9X9X9X9X9X",
"9X9X9X9X9X9X9X9X9X9X9X9X9X-XM.k.;.} o.6.w.$.O O q r . h a.6.2.4.4.q.O.L.9X9X9X9X9X9X9X9X9X9X9X9X9X9X",
"9X9X9X9X9X9X9X9X9X9X9X9X|.:.k.k.=.] } | O.X u b c c c O r.6.6.q.6.6.2.}.9X9X9X9X9X9X9X9X9X9X9X9X9X9X",
"9X9X9X9X9X9X9X9X9X9X9X9X|.N V &.V Z ' ' v r g s i i d q k  .|  . .| ;.W.8X9X9X9X9X9X9X9X9X9X9X9X9X9X",
"9X9X9X9X9X9X9X9X9X9X9X9X9X|.N V 1.q.y.3.j 0 d y y r 0 u s *.] ) / ' :.=.{.9X8X9X9X9X9X9X9X9X9X9X9X9X",
"9X9X9X9X9X9X9X9X9X9X8X9X9X9X{.;.J.p.w.8.l o g r 0 0 d p x p.w.b.v.&.Z B _.9X9X9X9X9X9X9X9X9X9X9X9X9X",
"9X9X9X9X9X9X9X9X9X9X9X9X9X9X@XL.w.o.O.X.{ X u g i d f 0 ~ 7.4.8.u.D.B >.5X9X9X9X9X9X9X9X9X9X9X9X9X9X",
"9X9X9X9X9X9X9X9X9X9X9X9X9X8XJ.u.2. .} | ) v   o 0 0 t n ^ O.6.q.o.8.P.qX9X9X9X9X9X9X9X9X9X9X9X9X9X9X",
"9X9X9X9X9X9X9X9X9X9X9X9X9X8XH.| } } } ^ B } #.z e a 5.y.9.` | X.6.2.L.9X9X9X9X9X9X9X9X9X9X9X9X9X9X9X",
"9X9X9X9X9X9X9X9X9X9X9X9X9X9X4X`.b.B V &.( } X.i.3.^ +.6.A.9.' [ 2.q.P.9X9X9X9X9X9X9X9X9X9X9X9X9X9X9X",
"9X9X9X9X9X9X9X9X9X9X9X9X9X9X8X9XE.V :.*.} | 2.u.H.^ X.6.+.G.&.,.z.;X9X8X9X9X9X9X9X9X9X9X9X9X9X9X9X9X",
"9X9X9X9X9X9X9X9X9X9X9X9X9X9X8X9XN.M l.:.( } 2.G.c.&.} 6.o.y.*.C =.2X9X9X9X9X9X9X9X9X9X9X9X9X9X9X9X9X",
"9X9X9X9X9X9X9X9X9X9X9X9X9X9X9X9X X:.>.m.1.} w.G.*.>.[  .q.8.}.W.|.9X9X9X9X9X9X9X9X9X9X9X9X9X9X9X9X9X",
"9X9X9X9X9X9X9X9X9X9X9X9X9X9X9X9X9X5X#X9X`.@.K.%.V :.>.1.o.Z.8X9X9X9X9X9X9X9X9X9X9X9X9X9X9X9X9X9X9X9X",
"9X9X9X9X9X9X9X9X9X9X9X9X9X9X7X9X9X9X9X9X9X>X].7 Z C E.9X}.(.9X8X8X7X9X9X9X9X9X9X9X9X9X9X9X9X9X9X9X9X",
"9X9X9X9X9X9X9X9X9X9X9X9X9X9X9X9X9X9X9X9X8X9X.XG {.).8X9X9X9X9X9X9X9X9X9X7X9X9X9X9X9X9X9X9X9X9X9X9X9X",
"9X9X9X9X9X9X9X9X9X9X9X9X1X7X[.~.OXoX%X8X9X9XXX6 6X9X9X9X3X:XOXOXXX*X6X9X9X9X9X9X9X9X9X9X9X9X9X9X9X9X",
"9X9X9X9X9X9X9X9X9X9X9X9XT.- * G R R V.Q.7X9XXX6 6X9X8X!.B.B.! T T I 5 R.$X3X9X9X9X9X9X9X9X9X9X9X9X9X",
"9X9X9X9X9X9X9X9X9X9X9X9X,X4 & 2 , < F R C.9XXXG 6X9XC.K ! J , , > > & % @ Y.9X9X9X9X9X9X9X9X9X9X9X9X",
"9X9X9X9X9X9X9X9X9X9X9X7X9XT.# * * , < 1 F Q.OXJ 0X:XK J F S S < < - - & 4 $X9X8X9X9X9X9X9X9X9X9X9X9X",
"9X9X9X9X9X9X9X9X9X9X9X9X9X=X; & & & < < S ! OXH 9Xg.< S S < < > - - * # R.9X9X9X9X9X9X9X9X9X9X9X9X9X",
"9X9X9X9X9X9X9X9X9X9X9X9X9X9XW + ; - > < , Y ].H ,XL > < < < > * - - % 8 7X9X9X9X9X9X9X9X9X9X9X9X9X9X",
"9X9X9X9X9X9X9X9X9X9X9X9X9X0X<XU $ + # # @ L ~.I ^.* S < * , < - - - + R.9X7X9X9X9X9X9X9X9X9X9X9X9X9X",
"9X9X9X9X9X9X9X9X9X9X9X9X9X9X9X9X^.W Q E h.f.g.I 3XU * > * * > & & $ = $X8X9X9X9X9X9X9X9X9X9X9X9X9X9X",
"9X9X9X9X9X9X9X9X9X9X9X9X0X9X9X9X9X9X9X9X9X9XB.I $XP @ * * * & * : + d.9X0X9X9X9X9X9X9X9X9X9X9X9X9X9X",
"9X9X9X9X9X9X9X9X9X9X9X9X9X9X9X9X9X7X7X9X7X9XXX1 P ^.h.+ $ & $ # + 8 =X9X9X9X9X9X9X9X9X9X9X9X9X9X9X9X",
"9X9X9X9X9X9X9X9X9X9X9X9X9X9X9X9X9X9X9X9X9X9XOX% T.9X9X^.3 ; 9 d.j.<X9X0X9X9X9X9X9X9X9X9X9X9X9X9X9X9X",
"9X9X9X9X9X9X9X9X9X9X9X9X9X9X9X9X9X9X9X9X9X9XXX1 3X9X7X9X3X,X3X9X9X9X9X9X9X9X9X9X9X9X9X9X9X9X9X9X9X9X",
"9X9X9X9X9X9X9X9X9X9X9X9X9X9X9X9X9X9X9X9X9X9XXX5 6X9X9X9X9X9X9X9X7X9X9X9X9X9X9X9X9X9X9X9X9X9X9X9X9X9X",
"9X9X9X9X9X9X9X9X9X9X9X9X9X9X9X9X9X9X9X9X7X9X].2 6X9X9X9X0X9X9X9X9X9X9X9X9X9X9X9X9X9X9X9X9X9X9X9X9X9X",
"9X9X9X9X9X9X9X9X9X9X9X9X9X9X9X9X9X9X9X9X9X9X1X/.0X9X9X9X9X9X9X9X9X9X9X9X9X9X9X9X9X9X9X9X9X9X9X9X9X9X",
"9X9X9X9X9X9X9X9X9X9X9X9X9X9X9X9X9X9X9X9X9X9X9X9X9X9X9X9X9X9X9X9X9X9X9X9X9X9X9X9X9X9X9X9X9X9X9X9X9X9X",
"9X9X9X9X9X9X9X9X9X9X9X9X9X9X9X9X9X9X9X9X9X9X9X9X9X9X9X9X9X9X9X9X9X9X9X9X9X9X9X9X9X9X9X9X9X9X9X9X9X9X",
"9X9X9X9X9X9X9X9X9X9X9X9X9X9X9X9X9X9X9X9X9X9X9X9X9X9X9X9X9X9X9X9X9X9X9X9X9X9X9X9X9X9X9X9X9X9X9X9X9X9X",
"9X9X9X9X9X9X9X9X9X9X9X9X9X9X9X9X9X9X9X9X9X9X9X9X9X9X9X9X9X9X9X9X9X9X9X9X9X9X9X9X9X9X9X9X9X9X9X9X9X9X",
"9X9X9X9X9X9X9X9X9X9X9X9X9X9X9X9X9X9X9X9X9X9X9X9X9X9X9X9X9X9X9X9X9X9X9X9X9X9X9X9X9X9X9X9X9X9X9X9X9X9X",
"9X9X9X9X9X9X9X9X9X9X9X9X9X9X9X9X9X9X9X9X9X9X9X9X9X9X9X9X9X9X9X9X9X9X9X9X9X9X9X9X9X9X9X9X9X9X9X9X9X9X"
};
