/* XPM */
static char *ab798c44fa0041208058a3cc170a7dechpAd4EvRmtpIFAtA[] = {
/* columns rows colors chars-per-pixel */
"50 50 216 2 ",
"   c #561D02",
".  c #671700",
"X  c #6A2601",
"o  c #742100",
"O  c #7A2A01",
"+  c #2D5400",
"@  c #2C5C00",
"#  c #325B00",
"$  c #355B03",
"%  c #356301",
"&  c #3B6503",
"*  c #3D6A02",
"=  c #3F640F",
"-  c #406E02",
";  c #40640D",
":  c #42690C",
">  c #437301",
",  c #467901",
"<  c #497C02",
"1  c #4B780C",
"2  c #43700C",
"3  c #4E6F1F",
"4  c #476C16",
"5  c #517A18",
"6  c #4D7812",
"7  c #6C6E05",
"8  c #557A29",
"9  c #5E7C34",
"0  c #832C00",
"q  c #8B2D00",
"w  c #902F00",
"e  c #863103",
"r  c #893100",
"t  c #863C08",
"y  c #9C3900",
"u  c #973300",
"i  c #A23C00",
"p  c #A53600",
"a  c #924107",
"s  c #A84106",
"d  c #B34500",
"f  c #B94300",
"g  c #BE4900",
"h  c #AF5B13",
"j  c #B85314",
"k  c #AE6008",
"l  c #AF741D",
"z  c #AF6913",
"x  c #C54C01",
"c  c #C95E0C",
"v  c #CE5100",
"b  c #C9680C",
"n  c #FE750C",
"m  c #FD760B",
"M  c #FD7416",
"N  c #FD7B15",
"B  c #FE7B1B",
"V  c #FD6A05",
"C  c #FE7C21",
"Z  c #FE7F2A",
"A  c #4D8202",
"S  c #54870C",
"D  c #599405",
"F  c #4D8316",
"G  c #588518",
"H  c #639817",
"J  c #69A711",
"K  c #598324",
"L  c #608629",
"P  c #699B24",
"I  c #648538",
"U  c #6E9438",
"Y  c #75AA31",
"T  c #77AD31",
"R  c #738D4F",
"E  c #758E51",
"W  c #799155",
"Q  c #82B939",
"!  c #D98F0E",
"~  c #FD8C0B",
"^  c #FD8605",
"/  c #FD9C00",
"(  c #FE960B",
")  c #EC811E",
"_  c #FD841C",
"`  c #FE8917",
"'  c #FC9413",
"]  c #FD9812",
"[  c #EC9801",
"{  c #FDA402",
"}  c #FEAA02",
"|  c #FEAB0C",
" . c #FEB00B",
".. c #FEAB14",
"X. c #FEAD1D",
"o. c #FBA713",
"O. c #FEB21C",
"+. c #FFB416",
"@. c #E7A219",
"#. c #CA8922",
"$. c #D79023",
"%. c #FD8423",
"&. c #FD8C24",
"*. c #FE842C",
"=. c #FE8C2D",
"-. c #FE9C26",
";. c #FE8A33",
":. c #FE8C3D",
">. c #FE8636",
",. c #FC9E35",
"<. c #FDA324",
"1. c #FEAD23",
"2. c #FEA72C",
"3. c #FEAE2B",
"4. c #F3AF2A",
"5. c #FEB32C",
"6. c #FEB92D",
"7. c #FEBA24",
"8. c #FEA73A",
"9. c #FDA93A",
"0. c #FEB431",
"q. c #FEBB33",
"w. c #FEB63A",
"e. c #E3A522",
"r. c #FEC22B",
"t. c #FEC334",
"y. c #FEC33C",
"u. c #FFCD39",
"i. c #FFCA36",
"p. c #FFD038",
"a. c #88B842",
"s. c #859B66",
"d. c #90A86D",
"f. c #8FB062",
"g. c #8FA373",
"h. c #98AF74",
"j. c #FE8A41",
"k. c #FE9845",
"l. c #FE9B55",
"z. c #FEA946",
"x. c #FEBC43",
"c. c #FEB449",
"v. c #FEB75B",
"b. c #FEA563",
"n. c #FEAE7B",
"m. c #FEB27B",
"M. c #FEB276",
"N. c #98C758",
"B. c #8DC345",
"V. c #ACCF7A",
"C. c #FEC442",
"Z. c #FECB44",
"A. c #FECC4C",
"S. c #FEC64D",
"D. c #FED148",
"F. c #FECF52",
"G. c #FDC151",
"H. c #FFD654",
"J. c #EBD056",
"K. c #FED466",
"L. c #FED07E",
"P. c #FEC96E",
"I. c #9FB086",
"U. c #98AD81",
"Y. c #A3B38B",
"T. c #ABBB95",
"R. c #FEB685",
"E. c #FEBA91",
"W. c #B3D583",
"Q. c #BCD597",
"!. c #B6C99C",
"~. c #BDC9AB",
"^. c #BCCBA6",
"/. c #FEDB88",
"(. c #FEC29A",
"). c #FEC094",
"_. c #FEDB9A",
"`. c #FFE598",
"'. c #C7DDA8",
"]. c #C3CFB7",
"[. c #FACBAA",
"{. c #FEDBA6",
"}. c #FED2B4",
"|. c #FED8BB",
" X c #CFE0AF",
".X c #CEE2B2",
"XX c #D0E5B2",
"oX c #D4E9B8",
"OX c #FEE4AD",
"+X c #FEEAB7",
"@X c #FEDDC4",
"#X c #DEE5D5",
"$X c #DAE9C3",
"%X c #FEEDC4",
"&X c #E2F0CE",
"*X c #E3EADB",
"=X c #FEE7D6",
"-X c #FEEEDF",
";X c #E8F2D8",
":X c #FFF5D8",
">X c #EAEEE5",
",X c #EAECE9",
"<X c #EEF3E6",
"1X c #FEF4E6",
"2X c #F2F5ED",
"3X c #FEF9EE",
"4X c #FEF2EA",
"5X c #F5F5F4",
"6X c #F7F8F5",
"7X c #FEFBF4",
"8X c white",
"9X c #FFFEFE",
"0X c #FFFEFD",
"qX c #FFFFFF",
"wX c #F9F5FD",
"eX c #FEECE9",
/* pixels */
"8X8X8X8X8X8X8X8X8X8X8X8X8X8X8X8X8X8X8X8X8X8X8X8X8X8X8X8X8X8X8X8X8X8X8X8X8X8X8X8X8X8X8X8X8X8X8X8X8X8X",
"8X8X8X8X8X8X8X8X8X8X8X8X8X8X8X8X8X8X8X8X8X8X8X8X8X8X8X8X8X8X8X8X8X8X8X8X8X8X8X8X8X8X8X8X8X8X8X8X8X8X",
"8X8X8X8X8X8X8X8X8X8X8X8X8X8X8X8X8X8X8X8X8X8X8X8X8X8X8X8X8X8X8X8X8X8X8X8X8X8X8X8X8X8X8X8X8X8X8X8X8X8X",
"8X8X8X8X8X8X8X8X8X8X8X8X8X8X8X8X8X8X8X8X8X8X8X8X8X8X8X8X8X8X8X8X8X8X8X8X8X8X8X8X8X8X8X8X8X8X8X8X8X8X",
"8X8X8X8X8X8X8X8X8X8X8X8X8X8X8X8X8X8X9X9X8X8X9X8X0X0X8X8X9X9X8X8X8X8X8X8X8X8X8X8X8X8X8X8X8X8X8X8X8X8X",
"8X8X8X8X8X8X8X8X8X8X8X8X8X8X8X8X0X8X0X0X0X0X9X9X0X8X0X0X9X9X9X9X8X8X8X8X8X8X8X8X8X8X8X8X8X8X8X8X8X8X",
"8X8X8X8X8X8X8X8X8X8X8X8X8X8X8X8X8X9X0X0X9X8X0X8X7X%X3X0X0X9X9X9X8X0X8X8X8X8X8X8X8X8X8X8X8X8X8X8X8X8X",
"8X8X8X8X8X8X8X8X8X8X8X8X8X8X8X8X0X8X|.b.).@X8XOXw.X./.9X9X9X9X9X8X8X8X8X8X8X8X8X8X8X8X8X8X8X8X8X8X8X",
"8X8X8X8X8X8X8X8X8X8X8X8X8X8X8X0X0X8Xl.N *.l.v.{ { 5.A.}.E.M.b.=X8X0X8X8X8X8X8X8X8X8X8X8X8X8X8X8X8X8X",
"8X8X8X8X8X8X8X8X8X8X8X8X8X8X8X0X8X7X>.M :.;./ } { X.C.w.;.:.N k.8X8X8X0X8X8X8X8X8X8X8X8X8X8X8X8X8X8X",
"8X8X8X8X8X8X8X8X8X8X8X8X8X8X8X1X/.`.z.B C =.{ { { X.6.H.z.:.B :.7X8X0X8X0X8X8X8X8X8X8X8X8X8X8X8X8X8X",
"8X8X8X8X8X8X8X8X8X8X8X8X8X0X8X{...t.A.F.8.N { { { o.0.D.8.Z %.k.OX3X8X8X8X8X8X8X8X8X8X8X8X8X8X8X8X8X",
"8X8X8X8X8X8X8X8X8X8X8X0X8X0X9X1X6.1.X.6.i.<.~ }  .6.u.5.B _ x.F.Z.Z.%X8X0X9X8X8X8X8X8X8X8X8X8X8X8X8X",
"8X8X8X8X8X8X8X8X8X8X8X8X0X8X7X%Xo.1.0.X.1.u.C z #.#.$.%.-.r.y.6.q.6.t.%X8X0X9X8X8X8X8X8X8X8X8X8X8X8X",
"8X8X8X8X8X8X8X8X8X8X8X0X8X=Xm.j.-.} X.5.q.#.O O r w . h i.6.1.5.5.0.| P.8X0X9X8X8X8X8X8X8X8X8X8X8X8X",
"8X8X8X8X8X8X8X8X8X8X8X8X}.;.:.j.*.~ { } o.X u v x x x O e.5.5.0.0.5.1.{.8X0X9X8X8X8X8X8X8X8X8X8X8X8X",
"8X8X8X8X8X8X8X8X9X9X0X9X}.M C %.C C ` ` c e g s i i d q k | { | | } -.E.6X8X9X8X8X8X8X8X8X8X8X8X8X8X",
"8X8X8X8X8X8X8X8X9X9X9X9X8X}.M B <.0.t.2.j q d y y r e u s &.' ( ^ ` ;.*.[.8X0X8X8X8X8X8X8X8X8X8X8X8X",
"8X8X8X8X8X8X8X8X8X8X9X9X0X9X[.<.H.t.0.r.z O g e 0 0 d p h i.q.G.c.&.B B ).8X0X8X8X8X8X8X8X8X8X8X8X8X",
"8X8X8X8X8X8X8X8X8X8X9X9X9X9X+XK.q.X...| [ X u g i d f 0 ! 6.5.5.y.S.N :.1X8X8X8X8X8X8X8X8X8X8X8X8X8X",
"8X8X8X8X8X8X8X8X8X8X8X9X8X7XH.y.1.| } } ( c   o q 0 t b ~ o.0.4.X.7.P.eX0X0X8X8X8X8X8X8X8X8X8X8X8X8X",
"8X8X8X8X8X8X8X8X8X8X8X9X8X6XG.} { { { ~ N { @.l e t 4.t.8._ } +.5.X.L.0X0X8X8X8X8X8X8X8X8X8X8X8X8X8X",
"8X8X8X8X8X8X8X8X8X8X8X8X0X0X3X_.v._ B C / { ..p.8.~ O.6.Z.8.` ' 1.0./.0X0X0X8X8X8X8X8X8X8X8X8X8X8X8X",
"8X8X8X8X8X8X8X8X8X8X9X9X0X0X0X0XR.N >.&.{ { 1.y.G.~ ..5.O.F.%.>.l.-X0X0X8X8X8X8X8X8X8X8X8X8X8X8X8X8X",
"8X8X8X8X8X8X8X8X8X8X8X8X8X8X0X0XM.m k.;./ { 1.F.w.&.{ 5.X.t.&.V ;.1X0X0X0X0X8X8X8X8X8X8X8X8X8X8X8X8X",
"8X8X8X8X8X8X8X8X8X8X8X8X8X8X0X0X@X;.:.n.X.{ q.F.&.>.' | 0.1.{.(.}.0X0X0X8X0X8X8X8X8X8X8X8X8X8X8X8X8X",
"8X8X8X8X8X8X8X8X8X8X8X8X8X0X0X0X8X1X@X0X_.O.J.$.N ;.:.<.X.C.7X8X0X0X0X0X8X8X8X8X8X8X8X8X8X8X8X8X8X8X",
"8X8X8X8X8X8X8X8X8X8X0X8X0X0X0X0X0X0X0X8X8X:X'.7 C n R.9X{./.8X7X6X0X0X0X8X8X8X8X8X8X8X8X8X8X8X8X8X8X",
"8X8X8X8X8X8X8X8X8X8X8X8X8X8X8X8X0X8X8X0X6X8X XF [.(.7X0X8X8X8X8X0X0X0X0X0X0X0X0X8X8X8X8X8X8X8X8X8X8X",
"8X8X8X8X8X8X8X8X8X0X0X8X2X6X].!.oX.X$X0X0X8X X6 5X8X0X8X2X;XoXoXXX&X6X0X0X0X0X0X8X8X8X8X8X8X8X8X8X8X",
"8X8X8X8X8X8X8X8X8X8X0X8XY.* * F T T B.W.0X8X.X6 5X0X7XQ.N.N.Q Y T J 3 !.#X2X0X0X8X8X8X8X8X8X8X8X8X8X",
"8X8X8X8X8X8X8X8X8X8X0X8X>X4 % < 2 < D T V.8X.XF 5X8XV.J Q H , , * * % % @ U.0X0X0X8X8X8X8X8X8X8X8X8X",
"8X8X8X8X8X8X8X8X8X8X9X0X0XI.# & * , < 1 D W.oXH wX;XJ H D < A < < - - & 4 #X8X0X0X0X8X8X8X8X8X8X8X8X",
"8X8X8X8X8X8X8X8X8X8X9X9X0X*X= & & & < < A Q oXG 9Xf.< A A < < , - - * # T.0X0X0X0X0X8X8X8X8X8X8X8X8X",
"8X8X8X8X8X8X8X8X8X8X9X9X0X0XE + ; * * < , U '.G >XK > A < < > * - - % 8 5X0X0X0X0X8X8X8X8X8X8X8X8X8X",
"8X8X8X8X8X8X8X8X8X8X8X9X0X0X,XI $ @ % @ @ K !.P ~.* A , - , , - - & # T.0X0X0X8X0X0X8X8X8X8X8X8X8X8X",
"8X8X8X8X8X8X8X8X8X0X0X0X0X0X0X0X~.E W R g.d.N.P ,XI % , * > > & & $ $ *X9X9X9X8X8X8X8X8X8X8X8X8X8X8X",
"8X8X8X8X8X8X8X8X8X0X0X0X0X0X0X0X0X0X0X0X8X0Xh.P *XL # * * & & * : # s.9X9X9X8X8X8X8X8X8X8X8X8X8X8X8X",
"8X8X8X8X8X8X8X8X8X8X0X0X0X0X0X0XwX0X0X0X7X0XXX1 L ~.g.+ $ & $ # + 3 *X9X0X0X9X8X8X8X8X8X8X8X8X8X8X8X",
"8X8X8X8X8X8X8X8X8X8X0X0X0X0X0X0X0X0X0X0X0X0XoX@ Y.8X0X~.3 = 9 s.h.,X9X9X9X9X9X9X8X8X8X8X8X8X8X8X8X8X",
"8X8X8X8X8X8X8X8X8X8X8X8X8X8X8X8X8X8X8X8X0X0X.X6 2X0XwX0X2X>X2X0X0X0X0X0X0X8X8X8X8X8X8X8X8X8X8X8X8X8X",
"8X8X8X8X8X8X8X8X8X8X8X8X8X8X8X8X8X8X8X8X0X0X.XF 5X0X0X0X0X0X0X0X0X0X0X0X0X8X8X8X8X8X8X8X8X8X8X8X8X8X",
"8X8X8X8X8X8X8X8X8X8X8X8X8X8X8X8X8X8X8X8X0X0X.X* 5X0X0X0X0X0X0X0X0X0X8X8X8X8X8X8X8X8X8X8X8X8X8X8X8X8X",
"8X8X8X8X8X8X8X8X8X8X8X8X8X8X8X8X8X8X8X8X0X0X>X^.0X0X0X0X0X0X8X8X0X0X8X8X8X8X8X8X8X8X8X8X8X8X8X8X8X8X",
"8X8X8X8X8X8X8X8X8X8X8X8X8X8X8X8X8X8X8X8X0X0X0X0X0X0X0X0X8X8X8X8X0X0X0X0X8X8X8X8X8X8X8X8X8X8X8X8X8X8X",
"8X8X8X8X8X8X8X8X8X8X8X8X8X8X8X8X8X8X8X8X0X0X0X0X0X0X0X0X8X8X8X8X0X0X0X0X8X8X8X8X8X8X8X8X8X8X8X8X8X8X",
"8X8X8X8X8X8X8X8X8X8X8X8X8X8X8X8X8X8X8X0X0X0X0X0X0X0X0X0X8X8X8X8X8X8X0X0X8X8X8X8X8X8X8X8X8X8X8X8X8X8X",
"8X8X8X8X8X8X8X8X8X8X8X8X8X8X8X8X8X8X8X0X0X0X0X0X0X0X0X0X8X8X8X8X8X8X0X0X8X8X8X8X8X8X8X8X8X8X8X8X8X8X",
"8X8X8X8X8X8X8X8X8X8X8X8X8X8X8X8X8X8X8X8X8X8X8X8X8X8X8X8X8X8X8X8X8X8X8X8X8X8X8X8X8X8X8X8X8X8X8X8X8X8X",
"8X8X8X8X8X8X8X8X8X8X8X8X8X8X8X8X8X8X8X8X8X8X8X8X8X8X8X8X8X8X8X8X8X8X8X8X8X8X8X8X8X8X8X8X8X8X8X8X8X8X"
};
