/* XPM */
static char *_571b7c1b6444679f78c13892f561058M5YgxD4tjihADKp6[] = {
/* columns rows colors chars-per-pixel */
"50 50 165 2 ",
"   c #3D260C",
".  c #45290D",
"X  c #4B2D0F",
"o  c #592F0E",
"O  c #58300F",
"+  c #532E10",
"@  c #553212",
"#  c #5D3312",
"$  c #632D0E",
"%  c #66300F",
"&  c #612E10",
"*  c #633613",
"=  c #6C3413",
"-  c #653916",
";  c #6C3B16",
":  c #6E3D18",
">  c #723513",
",  c #7C3512",
"<  c #733C17",
"1  c #7B3914",
"2  c #743E19",
"3  c #7B3E19",
"4  c #7F4116",
"5  c #75411A",
"6  c #7C431B",
"7  c #7F481E",
"8  c #7E4720",
"9  c #7F4921",
"0  c #833C15",
"q  c #8B3D15",
"w  c #833D1A",
"e  c #883C1B",
"r  c #8A4117",
"t  c #83431B",
"y  c #8A451C",
"u  c #85491E",
"i  c #8C4A1D",
"p  c #924317",
"a  c #93451D",
"s  c #99461D",
"d  c #944B1E",
"f  c #9A4A1E",
"g  c #9C501E",
"h  c #A14D1B",
"j  c #A2501D",
"k  c #A8531E",
"l  c #864723",
"z  c #854B21",
"x  c #8C4D21",
"c  c #9C4720",
"v  c #914F21",
"b  c #9D4C20",
"n  c #8E5125",
"m  c #945223",
"M  c #9B5424",
"N  c #9E5826",
"B  c #9B5129",
"V  c #A44D21",
"C  c #A84F22",
"Z  c #A35222",
"A  c #AC5323",
"S  c #A45A26",
"D  c #AB5B26",
"F  c #A2542A",
"G  c #A55D29",
"H  c #AD5F2A",
"J  c #AE5F28",
"K  c #AB5D29",
"L  c #B35725",
"P  c #B75725",
"I  c #B25624",
"U  c #B35825",
"Y  c #B45825",
"T  c #B65825",
"R  c #B55B25",
"E  c #B65B26",
"W  c #B75B26",
"Q  c #B25E27",
"!  c #B55A25",
"~  c #B85A26",
"^  c #B95B26",
"/  c #B95D27",
"(  c #BA5D26",
")  c #B95E26",
"_  c #BA5E26",
"`  c #BA5D27",
"'  c #B15F29",
"]  c #B25E2B",
"[  c #BA5E28",
"{  c #B25930",
"}  c #BA5D30",
"|  c #AE602B",
" . c #B56027",
".. c #BB6027",
"X. c #BD6127",
"o. c #BD6027",
"O. c #BD6027",
"+. c #B16029",
"@. c #B26029",
"#. c #B36129",
"$. c #B36028",
"%. c #B0602A",
"&. c #B66129",
"*. c #B4622A",
"=. c #B6622A",
"-. c #B56129",
";. c #B86129",
":. c #B8632B",
">. c #BE6128",
",. c #BC6229",
"<. c #BF6329",
"1. c #BE6329",
"2. c #BD632A",
"3. c #BB652B",
"4. c #BF6429",
"5. c #BE642A",
"6. c #BF642A",
"7. c #BE652B",
"8. c #BD6329",
"9. c #BF682E",
"0. c #BE692E",
"q. c #BC6231",
"w. c #B56A34",
"e. c #B96831",
"r. c #BD6D35",
"t. c #BE6F38",
"y. c #C06028",
"u. c #C16028",
"i. c #C16228",
"p. c #C26228",
"a. c #C46229",
"s. c #C06429",
"d. c #C0642A",
"f. c #C1652A",
"g. c #C2652A",
"h. c #C3662B",
"j. c #C4672B",
"k. c #C6672B",
"l. c #C7672B",
"z. c #C26429",
"x. c #C8662A",
"c. c #C8662A",
"v. c #C7682C",
"b. c #C6682C",
"n. c #C5682C",
"m. c #C9692C",
"M. c #C9692C",
"N. c #C36333",
"B. c #CB6734",
"V. c #C36C35",
"C. c #CE6B35",
"Z. c #D26D36",
"A. c #C47036",
"S. c #CC7236",
"D. c #CD7337",
"F. c #D57136",
"G. c #DD7539",
"H. c #D6793C",
"J. c #DE7B3B",
"K. c #DE7B3B",
"L. c #E57F3D",
"P. c #E37D3D",
"I. c #EA7F3D",
"U. c #E9823F",
"Y. c #E48040",
/* pixels */
"A I A P y f C C c C A V V C y A A A / m t P A A A I A A W y f A Z c C A V V A d A A A ^ b 4 P A A A ",
"t t 6 y 5 u i t 6 i y u y v : t 6 w t < ; u 4 7 3 3 t 4 l 5 y i t 3 v y w x y ; t 4 3 t : : z 6 t 3 ",
"i g 3.J @.@.@.@.' &.n N Z 7 v :.J ' J ' Q K 3.; 5 t M 6.Q Q $.$.@.@.;.v m h.m n &.J J J D ) J ;.: u ",
"v M ~ W _ W I W _ o.g Z a.t d i._ _ o.2._ o.x.5 0 r g Q W _ Q U U W i.M Z i.b g i._ [ 2.2._ ;.x.5 i ",
"< 3 e w w a a w y c y 2 h t t c a d d V c d A ; $ = 3 e w w y a e a s y 2 b 4 t s a b v c c f C ; < ",
"u u i m ; : 7 6 5 6 5 5 7 5 @ 5 7 l u ; < m x u u u x x m ; < 7 7 5 5 5 2 7 5 # z n x n 5 5 m x u u ",
"i.s.o.x.i S n.2.6.6.6.s.2.n.: D s.6.n.M i n.2.s.s.s.i.2.n.d Z n.2.s.i.i.h.2.x.5 D.U.K.U.e.i m.2.j.s.",
"A C I ( i d W I U W _ P ~ [ < c I I _ b i I A A U A C I ( i v ~ I W Q Q U ~ _ 5 { Z.C.G.=.l I A A U ",
"t 3 3 4 ; 3 y t w t y t w v * 2 w t l 4 * 6 2 2 4 t 3 3 t ; 3 y t w r l t w y - l B M F m - 4 3 2 4 ",
"m K S S G K K J 7 G V.r.r.t.r.V.r.V.7 M D Z D J 6 x | S S G D S J 7 x 3.X @ K S G S Z < N G S S J t ",
"D 2.2.2._ / _ n.x N.F.F.Z.Z.C.G.F.P.x A ~ ~ I ( m M a.2.o.Q _ _ p.d S A @ A P I / ) 2.t A P W A ( N ",
"f s c f V s c Z u K N.} { q.N.{ } N.z c Z c Z Z 4 y c c b V c c k t d 3 t s f C c c C 5 c Z f j C 4 ",
"6 u - 6 z u t t 6 x m x ; m m v m m 8 z t 5 ; 4 ; < 4 # 7 i t 7 l 6 u 5 7 * u i u u m 6 u u 5 5 u < ",
"2.s.# Z ;.;.;.3.3.;.Q / ; J ;.;.2./ 6.6.s.Q * g j g h O S 2./ Q 3.2.3.6.2.<  .;.3.;.;.6.4.s. .; 6.;.",
"A P * V P A A U W ~ ~ P : ~ ~ I A W U D I I - s s p p & V P A A W W Q U W ; W W I A U U D I A 5 _ P ",
"t <   y y y y 4 y t w x O y y w t a t 3 t t O , > > #   y y i y 3 y r w s @ y y w t d t 1 t y # y y ",
"N N M S 5 t S N N N N N M S 5 M Z M S 7 5 G N N N N N m S 5 t G M S 5 # S N N 5 N Z N S u 5 S M M m ",
"_ o...z.u M a.[ 2._ o.i.4.s.i  .6.6.x.d i n.2.i./ _ 2./ c.i M s.2.a.4 S z.2.i.x Q o.6.s.d y j.4.p.u.",
"A s C I t d I C s A A b f A t j A b C y 6 C f V A A s C I 7 d A V 2 y I V c A t C Z c Z y t A c V Z ",
": 6 5 6 ; ; 5 2 5 2 ; ; ; ; # ; 5 5 5 ; : 4 5 5 5 2 7 6 t 5 5 t 5 @ 5 < : < 2 - ; 6 5 4 : ; 5 5 2 3 ",
"u 3.) &.) &.&.&.h.d t g f f d 4 3.&.@.&.&.&.&.3.m m Y.H.H.H.H.H.H.Y.G M 3.&.Q J 6 &.&. . .&.@.@.&.D ",
"i _ W / W W U Q u.v q f f h p t 2._ / ) ;.;._ s.Z N G.F.F.F.Z.Z.F.G.J b _ ~ _ Q i _ Q .._ ...._ o.Q ",
"< a t t f d e y f 5 $ , , 1 w = c d f b Z c f V i z ] F F { ] F { { x 2 s b d Z < b d f b Z b b f Z ",
"x m x M 5 u m m m x m m v m 5 v m m M ; : N m m v x m m m 2 z N v v v v m x d 5 5 y t y * ; M m m v ",
"i.6.;.z.d S [ 2./ / / 2.2.2.v i.6.2.x.m t d.) / 2.i.i.2.z.d S [ ) / ) ! 2.2.s.y g h h k 4 t 2.W _ [ ",
"A A A W i f V C s V A V V A i A A I ~ d w I C C S A A A P y f C C c V C V V A t q p p f 1 w I A A A ",
"t 7 3 y 5 t i t 5 d y t y i : 4 3 4 t ; : u 4 7 3 t t t y 5 t x u 3 i i w x y = > > = > * < y t t 2 ",
"i N 9.' :.@.@.&.$.:.d m h.m x &.| J J J ' K 3.; x M v 3.J @.Q Q @.@.&.d m 3.m v :.$.J J J Q S ;.; u ",
"f g ~ Q Q U U U W o.M Z a.f f i._ ) ;.o.Q o.x.5 d Z m ~ W _ U U I W u.M Z u.b v i._ o.o.......x.4 i ",
"< 3 e 0 w s s w a f y < V 3 u f a b c b b b A ; 3 3 0 w w w y a e x s y < V 4 t s y d f b b f Z ; < ",
"x z n m ; * : : ; < ; ; < ; + 6 7 6 u : < m m u x u x x m : < 7 6 6 6 5 5 7 5 # z n x x 6 5 m x u u ",
"h.s.4.j.x r A j j j g j g k * J h.6.j.M i m.6.s.6.6.6.6.n.d S n.6.6.2.h.s.;.n.5 D.L.K.L.e.i m.6.z.s.",
"A C A / y 1 s p s f f p f h % f P I _ f y I C A I A C I ( p g U A U Q ( W ~ [ 5 { Z.Z.G.] l I C S I ",
"t 3 3 t ; = , = > > > > > , O 4 t w y t * 4 2 2 4 t 2 3 t ; 3 y y t t t t t a * x B M F m - w 2 2 4 ",
"m D S G D D K | 7 x | S S S S G S S 5 Z S G G J 7 < d i r i d a i . m S S S S Z S S S : M S S S S i ",
"D i.o.;._ Q _ i.i k R U U U A ) Q _ 7 A ~ W A [ f r h h h f f h p . D P U W A I / ) ;.t C ~ W A ~ M ",
"f s b c V a c A y i V b p b C s c C 5 f Z b Z V < > , 1 0 0 , 0 q O d b b s h A a V A 5 C Z c Z Z w ",
"7 z * 7 u z 7 t 5 u x t * x x z x u 6 u l 5 : n 7 u x # 2 t 5 3 5 4 u i z * u x u : i t ; 6 4 : u 5 ",
"3.h.# Z 3.;./ 2.6.3.;.;.;  .6.6.6.;.s.2.h.@.5 Y.J.J.U.: Z 2.;.2.6.6.;...;.< ' ;.2.Z v v u i.&.; 2.o.",
"A P * V I A I U R W W W < Q W A A W U D I A 6 G.F.C.Z.: c W A A U W Q ~ W ; W W I I ~ d 4 ~ S < _ P ",
"w <   y y y u w t t 3 x o l y w t y t 6 t w - K B F l   i y y z w y t t d # i y w t i r * t t # y t ",
"N N N G 5 m e.w.w.e.w.w.t.@   D G N S t 5 G N N N N N M S 5 t Z M m N N M N g 5 m N N S 6 5 S N N M ",
"/ i.2.c.i w.L.G.P.G.P.P.I.| X [ 6.s.z.b i x.i.s._ _ 2.2.z.i b z.o.o...o.o.4.4.i Q o.o.z.d y x.2.i.2.",
"A c C I 6 D C.N.[ B.N.q.q.} * C Z c C u t Z c b A A s Z I y v A C f A A V f k r C A c C y t C c V A ",
"< 5 2 6 ; 7 l z l 8 8 6 l 8 @ ; 6 2 6 : ; 7 5 5 2 < 5 3 4 ; : 6 5 5 2 ; = 5 ; * ; 7 5 5 5 ; 6 5 2 5 ",
"u 3.&.&.;.Q @.@.3.i M &.J ' J 6 &.&.&.&.&.@.) ;.m t 6.&.Q &.:.&.&.2.y y g f d i 3 ;.;.@.$.:.@.:. .J ",
"a ^ W Q Q ~ P ~ i.m V _ Q _ W u / _ _ _ / ;._ i.Z i _ Q _ W R U Q i.d r h f f s t _ _ / _ _ ....o. .",
"2 v r t f d e y f 3 2 a s s V < f i b b Z b f V d < a t w f d e a d 4 % , 1 , r = f d f f M b f c Z ",
"x v m M 5 u m v m m m m m v 6 v B m N : : N m d m x m m N 5 u N i m m m m v x 5 m N m N : : N m m m ",
"d.i.2.n.v S i.2.i.[ ) 3.d.d.v d.2.2.x.d t z._ ..;.6.6.6.z.m S s.2.o._ W 6.6.s.m z.s.3.m.m t a.2._ [ "
};
