/* XPM */
static char *_5810ad395f9460eb3cc66cccf66144cLhrwYWByZmDDDaXD[] = {
/* columns rows colors chars-per-pixel */
"50 50 145 2 ",
"   c #21660A",
".  c #256C0C",
"X  c #286E0F",
"o  c #27700D",
"O  c #2A730E",
"+  c #2D790E",
"@  c #317E0F",
"#  c #266D10",
"$  c #296F10",
"%  c #2C7511",
"&  c #2F7912",
"*  c #307714",
"=  c #327D14",
"-  c #357E18",
";  c #30800E",
":  c #358215",
">  c #388616",
",  c #378813",
"<  c #3B8E13",
"1  c #398915",
"2  c #3A8A15",
"3  c #398816",
"4  c #3A8916",
"5  c #3A8917",
"6  c #398A16",
"7  c #3B8B16",
"8  c #3A8A17",
"9  c #3C8B17",
"0  c #3C8D17",
"q  c #3C8E16",
"w  c #3A8A16",
"e  c #368118",
"r  c #378118",
"t  c #368218",
"y  c #378318",
"u  c #378419",
"i  c #378218",
"p  c #388318",
"a  c #39831A",
"s  c #3A831B",
"d  c #398418",
"f  c #388518",
"g  c #398518",
"h  c #398419",
"j  c #388519",
"k  c #398619",
"l  c #388719",
"z  c #3A8619",
"x  c #3A8719",
"c  c #3B8719",
"v  c #3A861A",
"b  c #3B871A",
"n  c #398519",
"m  c #3A8918",
"M  c #3B8819",
"N  c #3B8B18",
"B  c #3B881B",
"V  c #3B8A1A",
"C  c #3C8819",
"Z  c #3C8919",
"A  c #3C8A18",
"S  c #3D8A18",
"D  c #3D8B18",
"F  c #3C8A19",
"G  c #3C891A",
"H  c #3C891B",
"J  c #3C8A1A",
"K  c #3D8A1A",
"L  c #3C8A1B",
"P  c #3D8A1B",
"I  c #3C8C18",
"U  c #3D8C18",
"Y  c #3C8D18",
"T  c #3D8D18",
"R  c #3D8C19",
"E  c #3E8D19",
"W  c #3D8E18",
"Q  c #3D8F18",
"!  c #3F8F18",
"~  c #3E8E19",
"^  c #3E8D1A",
"/  c #3E8D1B",
"(  c #3D891C",
")  c #3E8B1C",
"_  c #3E8C1C",
"`  c #3F8C1C",
"'  c #3F8D1D",
"]  c #3F8E1C",
"[  c #3F8F1C",
"{  c #3D8B1A",
"}  c #3F9415",
"|  c #3E9116",
" . c #3F9019",
".. c #3F9219",
"X. c #3F901A",
"o. c #3F9119",
"O. c #408F1B",
"+. c #408D1C",
"@. c #408F1C",
"#. c #408E1D",
"$. c #408F1D",
"%. c #418F1E",
"&. c #428F1E",
"*. c #408E1C",
"=. c #40911A",
"-. c #40911B",
";. c #41911B",
":. c #419418",
">. c #41901C",
",. c #41911C",
"<. c #41901D",
"1. c #43921D",
"2. c #42931D",
"3. c #41901E",
"4. c #43911E",
"5. c #44921E",
"6. c #44931F",
"7. c #43961C",
"8. c #43971C",
"9. c #44951C",
"0. c #44961D",
"q. c #44971D",
"w. c #45971D",
"e. c #44951E",
"r. c #46971E",
"t. c #42931C",
"y. c #48971F",
"u. c #45991D",
"i. c #47991E",
"p. c #46981F",
"a. c #47991F",
"s. c #479A1E",
"d. c #479B1F",
"f. c #46991D",
"g. c #489B1F",
"h. c #489B1F",
"j. c #459420",
"k. c #459520",
"l. c #479920",
"z. c #4A9E20",
"x. c #4D9F22",
"c. c #4A9C21",
"v. c #4CA021",
"b. c #4EA121",
"n. c #51A624",
/* pixels */
"O : $ P l . P = = l &.= I : O u = & = % 5.= O P & : _ l : X.% & p * = % = >.X = p = : >.= 5 B o : p ",
"= : : : I = : I = O = & a.: O % = : : : 3 5 = 3 5 O & & : q.& O = = : : : P : = B > O = $ =.P O $ - ",
"= & x.= O q.>.= r B : P = P , : > = : v.. , a.I & P : 3 3 : P , : : & >.=.  X.q.> = I = I - 3 5 : > ",
"O I l : =.< 5 X q.q.r g.I : B _ l + >.= B 0 } & = a.>.l z.: l l &.= : _ = X., :.X I a.l =.q.= B P >.",
": l : & , : & 8.X.5 = % 3 3 = &.P : B = & , & : a.I : = % P : : j.: l B & : > & I 8.0 - & = 9 : l 5.",
"I p = P - = B I O.> l ; l =., = & I - = _ & l r q.: I = : ( I 3 % : P = : l & ( : a.= &.& : &.5 : % ",
"& l r = = _ r & > = & 5 = & : % & & P = : - &.= & > & = 5 O : = & & = P = : l ( & : > % > > O > % & ",
": =.r , : B 5 3 P = - B O & , = p 0 P u , : I : O.: = r > O : = - p =.l 3 , : I : >.= = B = % > & p ",
">.X.I : % 5 r = 5 - 5 a.B q.g.= : >.=.I = & 9 = : > : :.:.I g.8.& I =.=.5 & : B = 5 : : f.I >.z.B & ",
"O & : : o - l : : & . > : & O = O % & 3 & O r 3 : > X + 3 = % & + O & = 3 O & p > : :   : > = O & + ",
": I : & & = B 0 = & 3 - q.O : : & 5 B : % & = O., = = : B I O : = & I 3 = % = > =.= & - = >.= & : & ",
"> P : I >.P 5 q.= X.q.5 = a._ : 3 B l 3 X.&.3 0 I = q.O.> : z.r l : I : 5 :.P > :.> > a.P : I l.= I ",
"= & 5.= X $ : & , O.= , & = - & = = = j.% X & = & 5 P & , $ p & & = & v ( % X = = = I p : : % 3 & : ",
"= O >.O P P & , O.P : 3 p P % % I & = I O q.- = 5 >.l : > p l # : v O B = = >.* : 0 &.: : : l : . I ",
"O : = = r - & 5 w._ q.: 0 =.$ l % O : & = l = : 0 q.I =.= f.: & u X @ : & = p & > =.>.=.B : g.% = = ",
"l q.a.l > : I > - = = l I - - l.= P a.5.3 > : X.= l & : P I & _ &.= >.g._ > : 3 | = 3 & : I 3 & l.: ",
"% r : a.v.- k.: & l & 3 > = & l : & r 3 v.q.: k.& = : = > 5 & : l = = : I n.3 I &.O p & : , 3 O l 3 ",
"O > $ P 3   : : : = >.& a.> X = * = : % >.& . 3 : & P l : a.& O r % : & = &.. + : : & 8.= O.=.o & p ",
"3 & I = 3 I B I = O & & I = & % : : = I & I B I 3 & O & = 5 = % = : = 3 3 = X.B I : + & & 5 : = % = ",
"& p z.: + =.=.O l >.3 q.p I 5 B > & I g.O : a.3 & >.P I >.: O.5 B = = l.I O 5 q.& = q.> 8.P l I 3 B ",
"& 5 = = :.< : & a.8.- =.5 = l _ P & I & 5 | < & > a.I : 8.= : l >.: = B % =.< 5 % =.a.r B =.= l l >.",
"P P : = = = = g.I , > o l I : &.3 B l - & : = > z.> > = X &.3 : &.: P l = = = & =.a., 3 % & >.: B _ ",
"3 : = ( - : B = I 3 - , p I 5 X O 3 : = &.& I - P 3 P = < p I : . : : - r ( & &.& =.: l : 5 l 0 & X ",
"% B : & = _ : = : & % > O O = = = & P = = : &.= = > % - : X & & : & : l & = l P & : : % u & X = & 3 ",
"=.:.P 5 : 5 5 3 I : l >.= 3 X.% v w.O.P 5 = I : =.: : B I & I 5 * &.w.P P , : I = 8.= p I 3 = X.= - ",
"p u 5 : O 3 r & , - , :.r >.>.= & 3 l 5 & & B = = 3 & | I l 8.I & - u B 5 O : 3 = : p & 8.l I 8.3 + ",
"& = - = O = B , : % . : 9 X X = + & = : & O : B , : . O 3 :   O = O = = : O & 3 5 : =   & I &   & + ",
": =.: : : > 5 O.& : 5.: =.: P : = 5 I : = u : =.3 = B &.l I > 3 : = =.3 : = 3 , q.= = >.p I > B : - ",
"> l l P P : 3 I : =.P 5 & q.( = > l p P I l : 5 P : >.5 > = z.= > : B r P I : > I > 5 >.5 = B k.= 9 ",
"= % l.& X % = & > I = , & & = % - & = k.. O & = & I B & 5 $ = & & = % P l . % = & = I : : : $ - % : ",
"= + 3 O q.( & < w.( B : P q.% % l & = : & l.- = | q.B B : 5.I # : : O > & 3 q.* , :.5.B 3 : y.: . B ",
"& , : = % - = > =.l =.: 0 3 % >.$ = 5 : & = = > 3 >.3 =.: :.= - P X , > - & - = , P I P 5 > =.$ I = ",
"u q.g.=.a.: 8.3 = : % l &.: : q.: B l.q.q.X.r a.= : & & I I = _ I : &.z.=.a.3 P =.& 3 % : _ B & k.> ",
"X = % q.k.= >.- & l l : > = O l : % & = z.v = >.& = B r : 5 O = l = & & 5 x.- l P O r l : : 3 X : l ",
"& 5 & l 5 . = 3 : & l & z.> o & * : 3 & I = o > 3 + : = : g.& o = & 3 = = O.O + 3 , O P % q.=.O % - ",
": % a.& = a.I 5 = = & = : : : = , = = g.X 5 8.I : : & = = : : = = > & P I o :.>.I = : & - = : : & : ",
"O P 8.: > | I X &.q.3 z.P B 5 P u + >.I : > :.= & q.&.P z.3 I 5 _ = : q.3 : 5 f.O 3 l.l q.8.l I B _ ",
"= 3 - & 0 , & 5 :.X.= : 3 = : &.P = B & : 0 : & X.8.3 = > > : p j.: : l % 5 5 = : :.:.- : 3 : : l k.",
"O.l - : = = : a.I > B O l =.: l = I l - : & : > z.: B : O &.5 > r : _ - : : & r I l.= I + = 5., l - ",
"= : : u - l p & 5 : = < : > 3 X O = l = B = _ = : 3 : = | = 5 = . = = p = l - _ % 5 > = > 5 = 5 % o ",
"& I : : : _ > : l & = > o O = = - : P : : : &.= l : & r = X & & p = 5 l : : l I = l = & l & X : & v ",
"q.q._ 3 & 5 3 : P : B a.l =.a.& v g.>.I : = 0 = 0 : 3 I 8.l q.=.& 5.a.>.P = : P = X.- l :.I I a.> = ",
"& & > : O : r = : = + 0 - l : = O & = 3 & O l - & 3 O , 5 : l : + O & : 3 O = p = = 3 o < : l : - + ",
"= > : & O & B 5 : % % = =.. O = & : : : % % : I , = X & B 5   = = & > : - o & > I : & X & =.& . = & ",
": =.: 5 I 5 5 5.= B l.u 3 X.&.: : 5 P : < I > =.P = 8.>.> 3 q.l l = =.p > I P , q.: : l.B > B q.- l ",
": - ( l = & > : : =.: , & P l = = : - &.r & = > : , &.: , & >.= = = : l ( - & : : : I P , = - _ % > ",
"= O g.O = : & = 5 P = 3 = = = % l & = q.. : = = = I l = 5 % - % = p X P > O > = = : I : : > % : # B ",
"O = = + &.l & < a.&.=.: I a.$ & = O : & = >.= = | a._ =.= g.P # : & + = & 3 &.& , :.5.I B : v.= % : ",
"= 0 O.: & : > > B : 3 3 0 : & l.& : X.P = = = < : P = 5 3 0 & l &.& 5 =.l & - : 5 : B : 3 5 5 % q.: ",
"= >.=.a.v.- q.3 & 3 % l O.: : I : r q.I v.8.: a.& - = & I O.= P 3 : B 5.=.n.3 P =.O 3 & : I P = &.: "
};
