/* XPM */
static char *result[] = {
/* columns rows colors chars-per-pixel */
"50 50 211 2 ",
"   c #9C7B6C",
".  c #BD952D",
"X  c #B89437",
"o  c #C19C37",
"O  c #C19327",
"+  c #CBA334",
"@  c #CAA63B",
"#  c #D3AC38",
"$  c #DCB43B",
"%  c #D2A52E",
"&  c #E4BD3C",
"*  c #B79547",
"=  c #A4865A",
"-  c #B69857",
";  c #B08F48",
":  c #BFA554",
">  c #9E8063",
",  c #AA8C64",
"<  c #B99D6A",
"1  c #AE8C75",
"2  c #BDA368",
"3  c #C9A845",
"4  c #D1AE43",
"5  c #D3B64B",
"6  c #DCBC4A",
"7  c #D9B542",
"8  c #C3A454",
"9  c #CDB35A",
"0  c #D8BB57",
"q  c #C7AB6A",
"w  c #C9AD79",
"e  c #D0B470",
"r  c #DBC258",
"t  c #E5C245",
"y  c #EACA4B",
"u  c #EACE53",
"i  c #E3CB5B",
"p  c #E5CA55",
"a  c #EDD55C",
"s  c #F1D656",
"d  c #DBC666",
"f  c #DFCA76",
"g  c #E2CD66",
"h  c #ECD461",
"j  c #EED962",
"k  c #E9D569",
"l  c #E3CD75",
"z  c #EBDB75",
"x  c #F2DF66",
"c  c #F3E474",
"v  c #F4E779",
"b  c #683998",
"n  c #5B2CAD",
"m  c #5E31AD",
"M  c #5D2DB4",
"N  c #5E2DBA",
"B  c #5E30B2",
"V  c #6233AC",
"C  c #6539A8",
"Z  c #622EBC",
"A  c #6232B3",
"S  c #6532BD",
"D  c #6A35BD",
"F  c #6D3ABA",
"G  c #6939B3",
"H  c #723CBD",
"J  c #6937AC",
"K  c #7D5384",
"L  c #734990",
"P  c #6E41AE",
"I  c #7341AE",
"U  c #7A48A9",
"Y  c #7643B3",
"T  c #7944B4",
"R  c #7D46BA",
"E  c #7D48BB",
"W  c #7A4EB6",
"Q  c #6C35C4",
"!  c #6F39C5",
"~  c #6933C4",
"^  c #733BC5",
"/  c #743ACA",
"(  c #7A3ECB",
")  c #773CC8",
"_  c #7D3FD2",
"`  c #642FC2",
"'  c #7C43C3",
"]  c #7D42CC",
"[  c #7E48C6",
"{  c #7E42D2",
"}  c #926A86",
"|  c #8E6684",
" . c #A67D87",
".. c #824ABE",
"X. c #AB7CAC",
"o. c #844BC2",
"O. c #894EC6",
"+. c #8245CC",
"@. c #844BCB",
"#. c #8A4ECA",
"$. c #8147C5",
"%. c #8A53C4",
"&. c #8D52CC",
"*. c #8753C6",
"=. c #9153CE",
"-. c #935ACE",
";. c #9B5FC7",
":. c #8344D4",
">. c #8649D4",
",. c #8B4CD4",
"<. c #8746DB",
"1. c #8947DB",
"2. c #8C4BDB",
"3. c #8847D7",
"4. c #904DDE",
"5. c #8D51D3",
"6. c #8F50DA",
"7. c #9354D4",
"8. c #955AD2",
"9. c #995CD5",
"0. c #9553DC",
"q. c #9956DC",
"w. c #9C5ADC",
"e. c #9659D8",
"r. c #A35CDE",
"t. c #9A63DA",
"y. c #BB7FC7",
"u. c #A269DB",
"i. c #BA79DC",
"p. c #A468CE",
"a. c #8C49E1",
"s. c #8B47E1",
"d. c #924DE3",
"f. c #954EE9",
"g. c #9551E4",
"h. c #9A55E4",
"j. c #9E5AE3",
"k. c #9751E9",
"l. c #9C55EB",
"z. c #9F58EC",
"x. c #975AE0",
"c. c #A25CE5",
"v. c #A45CEB",
"b. c #A85FEC",
"n. c #A45DF1",
"m. c #A461E4",
"M. c #AB63E4",
"N. c #A662EA",
"B. c #AB63ED",
"V. c #AE6AED",
"C. c #AA6AE5",
"Z. c #B166ED",
"A. c #B26BEE",
"S. c #B469E8",
"D. c #AA71E7",
"F. c #B172E6",
"G. c #B17AE5",
"H. c #B473EC",
"J. c #B879EB",
"K. c #AD64F2",
"L. c #AB65F1",
"P. c #B167F1",
"I. c #B56BF2",
"U. c #B96EF4",
"Y. c #B672F2",
"T. c #BC74F4",
"R. c #BD7AF4",
"E. c #C17CF6",
"W. c #C57EF8",
"Q. c #B68F8A",
"!. c #B98AB2",
"~. c #C49E9B",
"^. c #D5BB84",
"/. c #DDBAA6",
"(. c #D2A9AF",
"). c #E9D098",
"_. c #F6EB84",
"`. c #F7EE88",
"'. c #F4E882",
"]. c #FAF288",
"[. c #F6EA98",
"{. c #F9F298",
"}. c #EFE08B",
"|. c #ECD7A7",
" X c #E6CCB3",
".X c #FBF5A4",
"XX c #BB86C2",
"oX c #B983E9",
"OX c #BD81F1",
"+X c #C48AD8",
"@X c #CD98CA",
"#X c #D6AACB",
"$X c #E0BCC8",
"%X c #C483F6",
"&X c #C98BF7",
"*X c #C985F8",
"=X c #CB8BF8",
"-X c #C788F7",
";X c #CE92F8",
":X c #CC96F5",
">X c #D194F9",
",X c #D39CF9",
"<X c #D9A5FA",
"1X c #DDABFA",
"2X c #D7A5F8",
"3X c #DFB0FA",
"4X c #E1B5FB",
"5X c #E4BCFB",
"6X c #E9C8FB",
"7X c #EDD2FC",
"8X c None",
/* pixels */
"8X8X8X8X8X8X8X8X8X8X8X8X8X8X8X8X8X8X8X8X8X8X8X8XB.Y.&X8X8X8X8X8X8X8X8X8X8X8X8X8X8X8X8X8X8X8X8X8X8X8X",
"8X8X8X8X8X8X8X8X8X8X8X8X8X8X8X8X8X8X8X8X8X8X8X0.g.j.Y.8X8X8X8X8X8X8X8X8X8X8X8X8X8X8X8X8X8X8X8X8X8X8X",
"8X8X8X8X8X8X8X8X8X8X8X8X8X8X8X8X8X-.w.m.H.Y.>.s.g.d.k.B.*.o.&.t.J.8X8X8X8X8X8X8X8X8X8X8X8X8X8X8X8X8X",
"8X8X8X8X8X8X8X8X8X8X8X8X8XR.=X8X8XE #.%.7.w.d.f.k.k.k.h.T I I I =.8X8XV.P.-X8X8X8X8X8X8X8X8X8X8X8X8X",
"8X8X8X8X8X8X8X8X8X8X8X8Xj.n.n.T.C.R #.#.7.q.v.f.l.l.z.,.Y Y Y Y ..v.2.1.2.c.R.8X8X8X8X8X8X8X8X8X8X8X",
"8X8X8X8X8X8X8X8X8X8X8X@.k.v.v.n.V.' #.7.7.q.b.z.l.z.z.+.R R R R ..l.s.1.3.2.B.8X8X8X8X8X8X8X8X8X8X8X",
"8X8X8X8X8X8X8X8X8X8X8X8Xd.v.z.v.n.$.5.7.q.q.v.n.n.n.v.' ........#.f.d.d.2.s.v.8X8X8X8X8X8X8X8X8X8X8X",
"8X8X8X8X8X8X8X8XY.E.-XS.d.d.f.k.l.>.7.q.w.j.c.n.l.l.g.$.O.O.O.&.0.f.l.k.d.d.7.&.t.F.8X8X8X8X8X8X8X8X",
"8X8X8X8X8X8X8X9.N.B.B.P.P.d.1.1.s.:.,.q.j.j.c.n.f.f.1.@.&.=.=.7.h.l.l.l.f.:.J U Y ..F.8X8X8X8X8X8X8X",
"8X8X8X8X8X8X8X&.v.v.b.B.P.B.3.:.:.:.,.0.j.c.v.b.s.s.{ #.=.7.7.7.v.n.n.l.1.R ..b I I 9.8X8X8X8X8X8X8X",
"8X8X8X8X8X8X8X[ j.v.v.B.B.P.N.( / Q ) 7.c.c.v.Z._ _ ( 7.q.7.w.c.n.n.n.,...T H ..I I $.8X8X8X8X8X8X8X",
"8X8X8X8X8XOX8X-.q.v.b.b.B.P.P.7.~ ` Q :.c.c.c.b.{ ~ ( q.q.q.j.v.n.n.h.#.......J I I #.8XV.8X8X8X8X8X",
"8X8X8X8Xj.j.x.g.>.0.b.b.b.Z.P.A.+.N N / c.c.b.Z.3.Z +.q.w.w.v.n.n.l.,.O.o...R R T R d.d.2.j.=X8X8X8X",
"8X8X8X*.5.] ' ( ) ( c.b.b.b.B.P.R.^ N ~ q.b.b.Z.4.D =.r.r.c.b.n.l.,.&.#.O.o.....$.d.f.s.3.,.B.8X8X8X",
"8X8X8XE ' F F D S Z ( 4.b.b.B.K.P.m.! Z ,.c.b.Z.c.! e.c.m.c.n.z.4.7.=.&.&.O.o.#.g.z.f.d.2.3.j.8X8X8X",
"8X8X8X8XH D A V A A Z Q 4.b.B.Z.V.Y.j./ ( r.b.Z.b.+.r.c.M.N.z.g.7.9.7.=.=.&.4.l.n.l.l.d.a.3.g.8X8X8X",
"8X8X8X8X=.+.D A B B B N Z ,.v.B.B.P.E.m.Q 5.M.S.J.;.M.M.S.P.c.4.w.e.8.7.=.d.n.n.v.z.l.f.d.4.8X8X8X8X",
"8X8XR.=X*X*X*XH.t.[ S B N N ( h.B.K.I.T.p.!.(./.}.[.).$X@X+Xr.c.r.r.q.7.f.b.n.n.z.l.h.2.O.o.7.H.8X8X",
"8X8XA.T.T.T.E.E.%XOXG.t.! N Z / 0.B.V.S./.}._.h l [.].`.[.|.i.M.r.r.0.l.n.n.n.v.j.7.&.o.T T Y ;.R.8X",
"8X8XZ.U.U.U.U.U.R.R.-XOXG.t./ ` / 0.M.y.^.'.].7 6 c v a v ].#Xi.c.h.v.b.b.v.c.j.7.=.#.....T J ..C.8X",
"8X8Xr.I.U.U.U.U.T.U.U.Y.T.-X%XD.j.%.Q.< 8 0 a 7 & y a & t h [. X+XP.b.b.c.r.r.7.7.=.O.o...I I ..8X8X",
"8X8X&.c.Z.I.U.U.U.U.U.U.U.I.Y.%X-X@Xq : @ % i v h s x k t y {..X$XZ.b.c.c.q.q.q.=.&.#.o.R T H R 8X8X",
"8X8XY ' >.c.b.P.P.I.P.U.I.I.I.I.A.!.e z g # 0 '.c t i ].c s v .X XM.M.c.r.q.q.7.=.#.o.E R ) #.m.8X8X",
"8XC m M n Z Z Q _ :.g.j.b.K.K.V.M. .2 f a + @ 7 t % $ y y & g v [.S.r.r.q.7.#.+.+.+.,.d.l.l.l.l.V.-X",
"I G A B B B B B N M N N ~ ! ] { ..= - 4 # 3 7 & p c y s a 7 & h '.X.0.( H D Q _ s.f.l.n.v.l.k.d.k.H.",
"..5.5.@.[ [ / ] ( ] { { >.2.6.6.U = 9 i 4 0 '.7 4 g u p _.c s c _.@Xc.g.1._ ) _ s.f.l.z.v.l.d.d.0.v.",
"*.w.N.v.z.z.z.z.L.V.T.R.%X%XW.Y.t.1 l `.4 8 r X . $ . 4 g a a ].[.E.Z.Z.Z.Z.b.v.k.l.v.z.l.f.d.4.2.j.",
"8X8X0.B.R.-X,X2X,X>X-X%XR.R.T.I.7.| 2 d @ o + . 5 v 7 + 7 + 5 f /.S.S.b.b.b.c.b.v.v.b.b.v.v.4.:.@.8X",
"8X8XJ.2X3X1X,X;X-X*XE.E.E.T.Y.B.R K = - 3 i p . 8 l j t j r * 9 ~.e.c.c.c.c.c.c.j.j.w.w.q.q.w.V.8X8X",
"8X8X:X1X<X,X;X=X*XW.E.E.T.T.P.6.V L   ; 8 z z X o 6 a t c '.g l !.) +.0.j.c.c.c.j.j.j.0.7.=.7.M.8X8X",
"8X8X-X>X;X;X;X*X%XE.T.I.v.2.] ' ' e.;.} , 2 0 X 5 v i o q l /.+XE.j./ Z Q ] ,.0.w.q.e.q.7.#.O.e.R.8X",
"8X8XY.*X=X=X*X%XE.I.c.4.{ { 2.g.N.A.8.L   , - ; 9 '.l ; < w y.S.A.T.x.Q Z Z ! +.,.,.7.7.#.#.O.7.V.8X",
"8X8X8.Y.W.W.T.B.2.:._ s.k.z.n.U.T.Y.w.E L }   = , ^.w 1 ~.X.x.M.K.I.I.m.Q N S ! { :.+.$.o...E &.8X8X",
"8X8X8XW 5.{ S Z / 2.n.n.n.K.R.E.R.T.A.j.@.#.U b K } q.P.&XN./ g.b.B.V.I.T.^ S ! :.s.l.l.,.[ I 8X8X8X",
"8X8X8X8XF / >.h.N.K.K.K.Y.*X%XW.E.R.B.g.>.v.9.8.w.) b.I.R.%X~ ! j.b.B.B.P.A.,.( { a.k.z.L.I.8X8X8X8X",
"8X8X8Xo.t.D.Y.Y.U.P.I.R.=X=X*X%XE.I.l.3.c.P.Y.R.M./ b.I.Y.&X{ N ) b.b.B.B.P.I.c.:.1.g.z.z.b.&X8X8X8X",
"8X8X8X8.%X-XW.T.I.I.;X,X,X;X&X-XE.n.d.{ I.T.T.%Xc.~ c.I.I.T.u.S N :.b.B.B.B.B.I.M.4.d.z.z.z.Y.8X8X8X",
"8X8X8X%.Y.%XE.P.I.;X4X3X<X,X;X%XK.v._ 2.T.T.R.=Xx.S g.P.U.Y.G.[ M Z ,.c.b.b.b.B.P.P.g.k.l.z.V.8X8X8X",
"8X8X8X8X-.m.m.N.,X6X6X6X4X<X&XI.n.g.( v.T.E.R.=X2.N 3.P.I.U.%XD.A M D 4.b.b.b.b.L.K.M.[ @.5.8X8X8X8X",
"8X8X8X8X8X8X8XF.4X7X7X7X5X1XR.K.L.:.2.K.E.E.%X=X2.M { P.I.U.%XoXD M M ( j.v.b.v.b.b.T.8X8X8X8X8X8X8X",
"8X8X8X8X8X8X8XG.5X7X7X7X4XR.P.K.h.^ N.T.E.W.-X-X:.M Q Z.I.U.T.E.&.B M A ( q.c.v.v.v.R.8X8X8X8X8X8X8X",
"8X8X8X8X8X8X8Xu.1X6X6X6X;XI.U.K.2.( A.E.%X%X,XR.+.M D b.U.U.Y.E.u.n M S ! >.0.z.c.v.Y.8X8X8X8X8X8X8X",
"8X8X8X8X8X8X8X8Xt.oX:XJ.K.T.U.n.D ,.E.W.%X=X,XI.] M Z c.I.U.U.E.%XA A G ) 7.5.%.7.e.8X8X8X8X8X8X8X8X",
"8X8X8X8X8X8X8X8X8X8X8X8XT.R.Y.0.M c.W.*X=X;X1XL.] m n j.I.I.U.U.=X^ V F ) x.OX8X8X8X8X8X8X8X8X8X8X8X",
"8X8X8X8X8X8X8X8X8X8X8X9.T.*XY.[ n I.%X=X;X,X1Xv.+.m n ,.I.U.U.U.%X7.G F ' x.R.8X8X8X8X8X8X8X8X8X8X8X",
"8X8X8X8X8X8X8X8X8X8X8X8XY.OXD.' G T.*X*X;X<X=Xz.>.m n ^ K.I.U.U.E.F.H ' ,.j.A.8X8X8X8X8X8X8X8X8X8X8X",
"8X8X8X8X8X8X8X8X8X8X8X8X-.L.[ P 8XS.%X*X,X<XY.v.@.V m A j.I.U.U.=X8X8X' 7.j.8X8X8X8X8X8X8X8X8X8X8X8X",
"8X8X8X8X8X8X8X8X8X8X8X8X8X8X8X8X8X8.Y.%X,X,X0.b.,.C m V #.w.A.U.R.8X8X8X8X8X8X8X8X8X8X8X8X8X8X8X8X8X",
"8X8X8X8X8X8X8X8X8X8X8X8X8X8X8X8X8X8X-.u.8X8X8X0.6.G C C 8X8X8.t.8X8X8X8X8X8X8X8X8X8X8X8X8X8X8X8X8X8X",
"8X8X8X8X8X8X8X8X8X8X8X8X8X8X8X8X8X8X8X8X8X8X8X*.#.P C 8X8X8X8X8X8X8X8X8X8X8X8X8X8X8X8X8X8X8X8X8X8X8X"
};
