/* XPM */
static char *result[] = {
/* columns rows colors chars-per-pixel */
"50 50 83 1 ",
"  c #B37F37",
". c #B8853B",
"X c #BF873C",
"o c #BB893D",
"O c #C28A3D",
"+ c #C48B3D",
"@ c #C08E3F",
"# c #C68C3E",
"$ c #C98E3F",
"% c #B19861",
"& c #A49D73",
"* c #C69044",
"= c #C69744",
"- c #CB9945",
"; c #D9A24B",
": c #DAAB4E",
"> c #C9A256",
", c #D6B25F",
"< c #F7B84E",
"1 c #F7B94E",
"2 c #F7B94F",
"3 c #F7BA4F",
"4 c #E3B554",
"5 c #E8B555",
"6 c #E9BB58",
"7 c #ECBD59",
"8 c #F7BA50",
"9 c #F8BA50",
"0 c #F8BB50",
"q c #F8BB51",
"w c #F8BC52",
"e c #F8BD52",
"r c #F8BD53",
"t c #F8BE53",
"y c #F9BE54",
"u c #F8BF54",
"i c #F9BF54",
"p c #EEC15B",
"a c #EFC25C",
"s c #F9C156",
"d c #F9C256",
"f c #F9C257",
"g c #F0C35C",
"h c #F2C55D",
"j c #F3C75E",
"k c #FAC458",
"l c #FAC559",
"z c #FAC55A",
"x c #FAC65A",
"c c #FAC65B",
"v c #F7C95F",
"b c #FAC85C",
"n c #FBC85C",
"m c #FBC95D",
"M c #FBCA5E",
"N c #FBCB5F",
"B c #FBCC5F",
"V c #FBCC60",
"C c #FBCD60",
"Z c #FACE62",
"A c #FBCF63",
"S c #FCCD61",
"D c #FCCE61",
"F c #FCCE62",
"G c #FCCF62",
"H c #FCD063",
"J c #7ABDC2",
"K c #6ABDD0",
"L c #50BEE8",
"P c #7BC1C5",
"I c #7BC2C6",
"U c #7BC3C7",
"Y c #A4BB9B",
"T c #A4BC9C",
"R c #A4BD9D",
"E c #90BAAA",
"W c #8DBCB0",
"Q c #ABC59F",
"! c #A5C1A0",
"~ c #A5C4A3",
"^ c #A6C6A4",
"/ c #A6C7A6",
"( c None",
/* pixels */
"((((((((((((((((((((((((((((((((((((((((((((((((((",
"((((((((((((((((((((((((((((((((((((((((((((((((((",
"((((((((((((((((((((((((((((((((((((((((((((((((((",
"((((((((((((((((((((((((((((((((((((((((((((((((((",
"((((((((((((((((((((((((((((((((((((((((((((((((((",
"((((((((((((((((((((((((((((((((((((((((((((((((((",
"((((((((((((((((((((((((((((((((((((((((((((((((((",
"((((((((((((((((((((((((((((((((((((((((((((((((((",
"(((((((((((((((((((((HHHHHHHH(((((((((((((((((((((",
"((((((((((((((((((HHHHHHHHHHHHHH((((((((((((((((((",
"((((((((((((((((HHHHHHHHHHHHHHHHHH((((((((((((((((",
"(((((((((((((((HHHHHHHHHHHHHHHHHHHH(((((((((((((((",
"(((((((((((((HHHHHHHHHHHHHHHHHHHHHHHM(((((((((((((",
"((((((((((((HHHHHHHHHHHHHHHHHHHHHHHHDd((((((((((((",
"((((((((((((HHHHHHHHHHHHHHHHHHHHHHHHHb((((((((((((",
"(((((((((((HHHHHHHHHHHHHHHHHHHHHHHHHHFt(((((((((((",
"((((((((((HHHHHHHHHHHHHHHHHHHHHHHHHHHHx<((((((((((",
"((((((((((HHHHHHHHHHHHHHHHHHHHHHHHHHHHV9((((((((((",
"(((((((((HHHHHHHHHHHHHHHHHHHHHHHHHHHHHHt<(((((((((",
"(((((((((HHHHHHHHHHHHHHHHHHHHHHHHHHHHHHf<(((((((((",
"(((((((((HHHHHHHHj6aAHHHHHHHHAa6jHHHHHHx<(((((((((",
"((((((((HHHHHHHHho .4HHHHHHHH4. ohHHHHHm<<((((((((",
"((((((((HHHHHHHH:+$#-HHHHHHHH-#$+:HHHHHM<<((((((((",
"((((((((HHHHHHHH,$$$>HHHHHHHH>$$$,HHHHHM<<((((((((",
"((((((((HHHHHHHHQ&*%EHHHHHHHHE%*&QHHHHHn<<((((((((",
"((((((((HHHHHb8q~LLLUHHHHHHHHULLL~qqbHHz<<((((((((",
"((((((((HHHHHu<<TLLLUHHHHHHHHULLLT<<uHHs<<((((((((",
"((((((((HHHHHl23!LLLUHHHHHHHHULLL!33lHGr<<((((((((",
"((((((((HHHHHGNB/LLLUHHHHHHHHULLL/BBGHN3<<((((((((",
"(((((((((HHHHHHH/LLLUHAp==pHHULLL/HHHHk<<(((((((((",
"(((((((((HHHHHHH/LLLUHg@XX@HHULLL/HHHCq<<(((((((((",
"(((((((((HHHHHHH/LLLUH7O$$OHHULLL/HHHc<<<(((((((((",
"((((((((((HHHHHH/LLLUHv;$$;HHULLL/HHC0<<((((((((((",
"((((((((((HHHHHH/LLLUHHZ55ZHHULLL/HDi<<<((((((((((",
"(((((((((((HHHHH/LLLUHHHHHHHHULLL/Fw<<<(((((((((((",
"((((((((((((HHHH/LLLUHHHHHHHHULLL^y<<<((((((((((((",
"((((((((((((MDHH/LLLUHHHHHHHHULLLR<<<1((((((((((((",
"(((((((((((((dbF/LLLUHHHHHHHHULLLY<<1(((((((((((((",
"(((((((((((((((t!LLLUHHHHHHGNPLLLY<(((((((((((((((",
"((((((((((((((((WLLLIDHHSmfe3JLLLW((((((((((((((((",
"((((((((((((((((LLLLJ<<<<<<<<JLLLL((((((((((((((((",
"((((((((((((((((LLLLK<<<<<<<<KLLLL((((((((((((((((",
"((((((((((((((((((((((((((((((((((((((((((((((((((",
"((((((((((((((((((((((((((((((((((((((((((((((((((",
"((((((((((((((((((((((((((((((((((((((((((((((((((",
"((((((((((((((((((((((((((((((((((((((((((((((((((",
"((((((((((((((((((((((((((((((((((((((((((((((((((",
"((((((((((((((((((((((((((((((((((((((((((((((((((",
"((((((((((((((((((((((((((((((((((((((((((((((((((",
"(((((((((((((((((((((((((((((((((((((((((((((((((("
};
